<?xml version="1.0" encoding="UTF-8"?>
<svg id="Capa_24" data-name="Capa 24" xmlns="http://www.w3.org/2000/svg" viewBox="0 0 309.45 297.19">
  <defs>
    <style>
      .cls-1, .cls-2, .cls-3 {
        opacity: .3;
      }

      .cls-1, .cls-4 {
        fill: #1a4895;
      }

      .cls-5 {
        fill: #cfe7cd;
      }

      .cls-6, .cls-3 {
        fill: #606060;
      }

      .cls-7 {
        fill: #faca2a;
      }

      .cls-8 {
        fill: #ee3a23;
      }

      .cls-9 {
        fill: #1e79ae;
      }

      .cls-10 {
        fill: #f15942;
      }

      .cls-11 {
        fill: #f8edaf;
      }
    </style>
  </defs>
  <path class="cls-3" d="M297.11,245.8c-14.08,0-25.5-11.42-25.5-25.5v-2.21c0-14.08,11.42-25.5,25.5-25.5.03,0,.06,0,.08,0v-15.17s-.06,0-.08,0c-14.08,0-25.5-11.42-25.5-25.5v-2.21c0-14.08,11.42-25.5,25.5-25.5.03,0,.06,0,.08,0v-15.17s-.06,0-.08,0c-14.08,0-25.5-11.42-25.5-25.5v-2.21c0-14.08,11.42-25.5,25.5-25.5.03,0,.06,0,.08,0v-15.17s-.06,0-.08,0c-7.3,0-13.88-3.06-18.52-7.98-4.91-4.65-7.98-11.23-7.98-18.52,0-.03,0-.06,0-.08h-15.17s0,.06,0,.08c0,14.08-11.42,25.5-25.5,25.5h-2.21c-14.08,0-25.5-11.42-25.5-25.5,0-.03,0-.06,0-.08h-15.17s0,.06,0,.08c0,14.08-11.42,25.5-25.5,25.5h-2.21c-14.08,0-25.5-11.42-25.5-25.5,0-.03,0-.06,0-.08h-15.17s0,.06,0,.08c0,14.08-11.42,25.5-25.5,25.5h-2.21c-14.08,0-25.5-11.42-25.5-25.5,0-.03,0-.06,0-.08h-15.17s0,.06,0,.08c0,7.3-3.06,13.88-7.98,18.52-4.65,4.91-11.23,7.98-18.52,7.98-.03,0-.06,0-.08,0v15.17s.06,0,.08,0c14.08,0,25.5,11.42,25.5,25.5v2.21c0,14.08-11.42,25.5-25.5,25.5-.03,0-.06,0-.08,0v15.17s.06,0,.08,0c14.08,0,25.5,11.42,25.5,25.5v2.21c0,14.08-11.42,25.5-25.5,25.5-.03,0-.06,0-.08,0v15.17s.06,0,.08,0c14.08,0,25.5,11.42,25.5,25.5v2.21c0,14.08-11.42,25.5-25.5,25.5-.03,0-.06,0-.08,0v15.17s.06,0,.08,0c7.3,0,13.88,3.06,18.52,7.98,4.91,4.65,7.98,11.23,7.98,18.52,0,.03,0,.06,0,.08h15.17s0-.06,0-.08c0-14.08,11.42-25.5,25.5-25.5h2.21c14.08,0,25.5,11.42,25.5,25.5,0,.03,0,.06,0,.08h15.17s0-.06,0-.08c0-14.08,11.42-25.5,25.5-25.5h2.21c14.08,0,25.5,11.42,25.5,25.5,0,.03,0,.06,0,.08h15.17s0-.06,0-.08c0-14.08,11.42-25.5,25.5-25.5h2.21c14.08,0,25.5,11.42,25.5,25.5,0,.03,0,.06,0,.08h15.17s0-.06,0-.08c0-7.3,3.06-13.88,7.98-18.52,4.65-4.91,11.23-7.98,18.52-7.98.03,0,.06,0,.08,0v-15.17s-.06,0-.08,0Z"/>
  <path class="cls-11" d="M289.85,242.93c-14.08,0-25.5-11.42-25.5-25.5v-2.21c0-14.08,11.42-25.5,25.5-25.5.03,0,.06,0,.08,0v-15.17s-.06,0-.08,0c-14.08,0-25.5-11.42-25.5-25.5v-2.21c0-14.08,11.42-25.5,25.5-25.5.03,0,.06,0,.08,0v-15.17s-.06,0-.08,0c-14.08,0-25.5-11.42-25.5-25.5v-2.21c0-14.08,11.42-25.5,25.5-25.5.03,0,.06,0,.08,0v-15.17s-.06,0-.08,0c-7.3,0-13.88-3.06-18.52-7.98-4.91-4.65-7.98-11.23-7.98-18.52,0-.03,0-.06,0-.08h-15.17s0,.06,0,.08c0,14.08-11.42,25.5-25.5,25.5h-2.21c-14.08,0-25.5-11.42-25.5-25.5,0-.03,0-.06,0-.08h-15.17s0,.06,0,.08c0,14.08-11.42,25.5-25.5,25.5h-2.21c-14.08,0-25.5-11.42-25.5-25.5,0-.03,0-.06,0-.08h-15.17s0,.06,0,.08c0,14.08-11.42,25.5-25.5,25.5h-2.21c-14.08,0-25.5-11.42-25.5-25.5,0-.03,0-.06,0-.08h-15.17s0,.06,0,.08c0,7.3-3.06,13.88-7.98,18.52-4.65,4.91-11.23,7.98-18.52,7.98-.03,0-.06,0-.08,0v15.17s.06,0,.08,0c14.08,0,25.5,11.42,25.5,25.5v2.21c0,14.08-11.42,25.5-25.5,25.5-.03,0-.06,0-.08,0v15.17s.06,0,.08,0c14.08,0,25.5,11.42,25.5,25.5v2.21c0,14.08-11.42,25.5-25.5,25.5-.03,0-.06,0-.08,0v15.17s.06,0,.08,0c14.08,0,25.5,11.42,25.5,25.5v2.21c0,14.08-11.42,25.5-25.5,25.5-.03,0-.06,0-.08,0v15.17s.06,0,.08,0c7.3,0,13.88,3.06,18.52,7.98,4.91,4.65,7.98,11.23,7.98,18.52,0,.03,0,.06,0,.08h15.17s0-.06,0-.08c0-14.08,11.42-25.5,25.5-25.5h2.21c14.08,0,25.5,11.42,25.5,25.5,0,.03,0,.06,0,.08h15.17s0-.06,0-.08c0-14.08,11.42-25.5,25.5-25.5h2.21c14.08,0,25.5,11.42,25.5,25.5,0,.03,0,.06,0,.08h15.17s0-.06,0-.08c0-14.08,11.42-25.5,25.5-25.5h2.21c14.08,0,25.5,11.42,25.5,25.5,0,.03,0,.06,0,.08h15.17s0-.06,0-.08c0-7.3,3.06-13.88,7.98-18.52,4.65-4.91,11.23-7.98,18.52-7.98.03,0,.06,0,.08,0v-15.17s-.06,0-.08,0Z"/>
  <rect class="cls-1" x="69.47" y="64.14" width="178" height="178" rx="10.93" ry="10.93"/>
  <rect class="cls-5" x="64.21" y="58.96" width="178" height="178" rx="10.93" ry="10.93"/>
  <g class="cls-2">
    <rect class="cls-6" x="110.11" y="85.01" width="25.98" height="59.55" rx="4.51" ry="4.51"/>
    <rect class="cls-6" x="103.61" y="133.33" width="107.71" height="87.57" rx="6.24" ry="6.24"/>
    <path class="cls-6" d="M155.15,93.74l-70.35,52.08c-3.02,2.24-1.44,7.03,2.32,7.03h140.71c3.76,0,5.34-4.8,2.32-7.03l-70.35-52.08c-1.38-1.02-3.26-1.02-4.64,0Z"/>
    <rect class="cls-6" x="115.37" y="158.14" width="24.08" height="24.08" rx="2.26" ry="2.26"/>
    <rect class="cls-6" x="177.84" y="158.14" width="24.08" height="24.08" rx="2.26" ry="2.26"/>
    <path class="cls-6" d="M147.72,182.22h19.5c4.2,0,7.62,3.41,7.62,7.62v28.68c0,.59-.48,1.06-1.06,1.06h-32.61c-.59,0-1.06-.48-1.06-1.06v-28.68c0-4.2,3.41-7.62,7.62-7.62Z"/>
  </g>
  <g>
    <rect class="cls-10" x="105.85" y="80.01" width="25.98" height="59.55" rx="4.51" ry="4.51"/>
    <rect class="cls-7" x="99.35" y="128.33" width="107.71" height="87.57" rx="6.24" ry="6.24"/>
    <path class="cls-8" d="M150.89,88.74l-70.35,52.08c-3.02,2.24-1.44,7.03,2.32,7.03h140.71c3.76,0,5.34-4.8,2.32-7.03l-70.35-52.08c-1.38-1.02-3.26-1.02-4.64,0Z"/>
    <rect class="cls-9" x="111.1" y="153.14" width="24.08" height="24.08" rx="2.26" ry="2.26"/>
    <rect class="cls-9" x="173.57" y="153.14" width="24.08" height="24.08" rx="2.26" ry="2.26"/>
    <path class="cls-4" d="M143.45,177.22h19.5c4.2,0,7.62,3.41,7.62,7.62v28.68c0,.59-.48,1.06-1.06,1.06h-32.61c-.59,0-1.06-.48-1.06-1.06v-28.68c0-4.2,3.41-7.62,7.62-7.62Z"/>
  </g>
</svg>