<?xml version="1.0" encoding="UTF-8"?>
<svg id="Postal_flecha" data-name="Postal flecha" xmlns="http://www.w3.org/2000/svg" viewBox="0 0 309.45 297.19">
  <defs>
    <style>
      .cls-1 {
        fill: #1a4895;
      }

      .cls-1, .cls-2, .cls-3 {
        opacity: .3;
      }

      .cls-4 {
        fill: #cfe7cd;
      }

      .cls-5 {
        stroke: #ee3a23;
      }

      .cls-5, .cls-6 {
        fill: none;
        stroke-linecap: round;
        stroke-miterlimit: 10;
        stroke-width: 18px;
      }

      .cls-3 {
        fill: #606060;
      }

      .cls-7 {
        fill: #f8edaf;
      }

      .cls-6 {
        stroke: #606060;
      }
    </style>
  </defs>
  <path class="cls-3" d="M296.28,248.61c-14.08,0-25.5-11.42-25.5-25.5v-2.21c0-14.08,11.42-25.5,25.5-25.5.03,0,.06,0,.08,0v-15.17s-.06,0-.08,0c-14.08,0-25.5-11.42-25.5-25.5v-2.21c0-14.08,11.42-25.5,25.5-25.5.03,0,.06,0,.08,0v-15.17s-.06,0-.08,0c-14.08,0-25.5-11.42-25.5-25.5v-2.21c0-14.08,11.42-25.5,25.5-25.5.03,0,.06,0,.08,0v-15.17s-.06,0-.08,0c-7.3,0-13.88-3.06-18.52-7.98-4.91-4.65-7.98-11.23-7.98-18.52,0-.03,0-.06,0-.08h-15.17s0,.06,0,.08c0,14.08-11.42,25.5-25.5,25.5h-2.21c-14.08,0-25.5-11.42-25.5-25.5,0-.03,0-.06,0-.08h-15.17s0,.06,0,.08c0,14.08-11.42,25.5-25.5,25.5h-2.21c-14.08,0-25.5-11.42-25.5-25.5,0-.03,0-.06,0-.08h-15.17s0,.06,0,.08c0,14.08-11.42,25.5-25.5,25.5h-2.21c-14.08,0-25.5-11.42-25.5-25.5,0-.03,0-.06,0-.08h-15.17s0,.06,0,.08c0,7.3-3.06,13.88-7.98,18.52-4.65,4.91-11.23,7.98-18.52,7.98-.03,0-.06,0-.08,0v15.17s.06,0,.08,0c14.08,0,25.5,11.42,25.5,25.5v2.21c0,14.08-11.42,25.5-25.5,25.5-.03,0-.06,0-.08,0v15.17s.06,0,.08,0c14.08,0,25.5,11.42,25.5,25.5v2.21c0,14.08-11.42,25.5-25.5,25.5-.03,0-.06,0-.08,0v15.17s.06,0,.08,0c14.08,0,25.5,11.42,25.5,25.5v2.21c0,14.08-11.42,25.5-25.5,25.5-.03,0-.06,0-.08,0v15.17s.06,0,.08,0c7.3,0,13.88,3.06,18.52,7.98,4.91,4.65,7.98,11.23,7.98,18.52,0,.03,0,.06,0,.08h15.17s0-.06,0-.08c0-14.08,11.42-25.5,25.5-25.5h2.21c14.08,0,25.5,11.42,25.5,25.5,0,.03,0,.06,0,.08h15.17s0-.06,0-.08c0-14.08,11.42-25.5,25.5-25.5h2.21c14.08,0,25.5,11.42,25.5,25.5,0,.03,0,.06,0,.08h15.17s0-.06,0-.08c0-14.08,11.42-25.5,25.5-25.5h2.21c14.08,0,25.5,11.42,25.5,25.5,0,.03,0,.06,0,.08h15.17s0-.06,0-.08c0-7.3,3.06-13.88,7.98-18.52,4.65-4.91,11.23-7.98,18.52-7.98.03,0,.06,0,.08,0v-15.17s-.06,0-.08,0Z"/>
  <path class="cls-7" d="M287.75,245.64c-14.08,0-25.5-11.42-25.5-25.5v-2.21c0-14.08,11.42-25.5,25.5-25.5.03,0,.06,0,.08,0v-15.17s-.06,0-.08,0c-14.08,0-25.5-11.42-25.5-25.5v-2.21c0-14.08,11.42-25.5,25.5-25.5.03,0,.06,0,.08,0v-15.17s-.06,0-.08,0c-14.08,0-25.5-11.42-25.5-25.5v-2.21c0-14.08,11.42-25.5,25.5-25.5.03,0,.06,0,.08,0v-15.17s-.06,0-.08,0c-7.3,0-13.88-3.06-18.52-7.98-4.91-4.65-7.98-11.23-7.98-18.52,0-.03,0-.06,0-.08h-15.17s0,.06,0,.08c0,14.08-11.42,25.5-25.5,25.5h-2.21c-14.08,0-25.5-11.42-25.5-25.5,0-.03,0-.06,0-.08h-15.17s0,.06,0,.08c0,14.08-11.42,25.5-25.5,25.5h-2.21c-14.08,0-25.5-11.42-25.5-25.5,0-.03,0-.06,0-.08h-15.17s0,.06,0,.08c0,14.08-11.42,25.5-25.5,25.5h-2.21c-14.08,0-25.5-11.42-25.5-25.5,0-.03,0-.06,0-.08h-15.17s0,.06,0,.08c0,7.3-3.06,13.88-7.98,18.52-4.65,4.91-11.23,7.98-18.52,7.98-.03,0-.06,0-.08,0v15.17s.06,0,.08,0c14.08,0,25.5,11.42,25.5,25.5v2.21c0,14.08-11.42,25.5-25.5,25.5-.03,0-.06,0-.08,0v15.17s.06,0,.08,0c14.08,0,25.5,11.42,25.5,25.5v2.21c0,14.08-11.42,25.5-25.5,25.5-.03,0-.06,0-.08,0v15.17s.06,0,.08,0c14.08,0,25.5,11.42,25.5,25.5v2.21c0,14.08-11.42,25.5-25.5,25.5-.03,0-.06,0-.08,0v15.17s.06,0,.08,0c7.3,0,13.88,3.06,18.52,7.98,4.91,4.65,7.98,11.23,7.98,18.52,0,.03,0,.06,0,.08h15.17s0-.06,0-.08c0-14.08,11.42-25.5,25.5-25.5h2.21c14.08,0,25.5,11.42,25.5,25.5,0,.03,0,.06,0,.08h15.17s0-.06,0-.08c0-14.08,11.42-25.5,25.5-25.5h2.21c14.08,0,25.5,11.42,25.5,25.5,0,.03,0,.06,0,.08h15.17s0-.06,0-.08c0-14.08,11.42-25.5,25.5-25.5h2.21c14.08,0,25.5,11.42,25.5,25.5,0,.03,0,.06,0,.08h15.17s0-.06,0-.08c0-7.3,3.06-13.88,7.98-18.52,4.65-4.91,11.23-7.98,18.52-7.98.03,0,.06,0,.08,0v-15.17s-.06,0-.08,0Z"/>
  <rect class="cls-1" x="68.55" y="66.95" width="178" height="178" rx="10.93" ry="10.93"/>
  <rect class="cls-4" x="62.11" y="61.66" width="178" height="178" rx="10.93" ry="10.93"/>
  <g class="cls-2">
    <line class="cls-6" x1="156.19" y1="99.8" x2="156.19" y2="213.43"/>
    <polyline class="cls-6" points="98.57 151.74 156.46 93.85 215.71 153.1"/>
  </g>
  <g>
    <line class="cls-5" x1="150.17" y1="96.83" x2="150.17" y2="210.45"/>
    <polyline class="cls-5" points="92.54 148.77 150.44 90.87 209.68 150.12"/>
  </g>
</svg>