<?xml version="1.0" encoding="UTF-8"?>
<svg id="Postal_perfil" data-name="Postal perfil" xmlns="http://www.w3.org/2000/svg" viewBox="0 0 309.45 297.19">
  <defs>
    <style>
      .cls-1, .cls-2 {
        opacity: .3;
      }

      .cls-1, .cls-3 {
        fill: #1a4895;
      }

      .cls-4 {
        fill: #cfe7cd;
      }

      .cls-2 {
        fill: #606060;
      }

      .cls-5 {
        fill: #f8edaf;
      }
    </style>
  </defs>
  <path class="cls-2" d="M297.9,249.89c-14.08,0-25.5-11.42-25.5-25.5v-2.21c0-14.08,11.42-25.5,25.5-25.5.03,0,.06,0,.08,0v-15.17s-.06,0-.08,0c-14.08,0-25.5-11.42-25.5-25.5v-2.21c0-14.08,11.42-25.5,25.5-25.5.03,0,.06,0,.08,0v-15.17s-.06,0-.08,0c-14.08,0-25.5-11.42-25.5-25.5v-2.21c0-14.08,11.42-25.5,25.5-25.5.03,0,.06,0,.08,0v-15.17s-.06,0-.08,0c-7.3,0-13.88-3.06-18.52-7.98-4.91-4.65-7.98-11.23-7.98-18.52,0-.03,0-.06,0-.08h-15.17s0,.06,0,.08c0,14.08-11.42,25.5-25.5,25.5h-2.21c-14.08,0-25.5-11.42-25.5-25.5,0-.03,0-.06,0-.08h-15.17s0,.06,0,.08c0,14.08-11.42,25.5-25.5,25.5h-2.21c-14.08,0-25.5-11.42-25.5-25.5,0-.03,0-.06,0-.08h-15.17s0,.06,0,.08c0,14.08-11.42,25.5-25.5,25.5h-2.21c-14.08,0-25.5-11.42-25.5-25.5,0-.03,0-.06,0-.08h-15.17s0,.06,0,.08c0,7.3-3.06,13.88-7.98,18.52-4.65,4.91-11.23,7.98-18.52,7.98-.03,0-.06,0-.08,0v15.17s.06,0,.08,0c14.08,0,25.5,11.42,25.5,25.5v2.21c0,14.08-11.42,25.5-25.5,25.5-.03,0-.06,0-.08,0v15.17s.06,0,.08,0c14.08,0,25.5,11.42,25.5,25.5v2.21c0,14.08-11.42,25.5-25.5,25.5-.03,0-.06,0-.08,0v15.17s.06,0,.08,0c14.08,0,25.5,11.42,25.5,25.5v2.21c0,14.08-11.42,25.5-25.5,25.5-.03,0-.06,0-.08,0v15.17s.06,0,.08,0c7.3,0,13.88,3.06,18.52,7.98,4.91,4.65,7.98,11.23,7.98,18.52,0,.03,0,.06,0,.08h15.17s0-.06,0-.08c0-14.08,11.42-25.5,25.5-25.5h2.21c14.08,0,25.5,11.42,25.5,25.5,0,.03,0,.06,0,.08h15.17s0-.06,0-.08c0-14.08,11.42-25.5,25.5-25.5h2.21c14.08,0,25.5,11.42,25.5,25.5,0,.03,0,.06,0,.08h15.17s0-.06,0-.08c0-14.08,11.42-25.5,25.5-25.5h2.21c14.08,0,25.5,11.42,25.5,25.5,0,.03,0,.06,0,.08h15.17s0-.06,0-.08c0-7.3,3.06-13.88,7.98-18.52,4.65-4.91,11.23-7.98,18.52-7.98.03,0,.06,0,.08,0v-15.17s-.06,0-.08,0Z"/>
  <path class="cls-5" d="M290.64,245.89c-14.08,0-25.5-11.42-25.5-25.5v-2.21c0-14.08,11.42-25.5,25.5-25.5.03,0,.06,0,.08,0v-15.17s-.06,0-.08,0c-14.08,0-25.5-11.42-25.5-25.5v-2.21c0-14.08,11.42-25.5,25.5-25.5.03,0,.06,0,.08,0v-15.17s-.06,0-.08,0c-14.08,0-25.5-11.42-25.5-25.5v-2.21c0-14.08,11.42-25.5,25.5-25.5.03,0,.06,0,.08,0v-15.17s-.06,0-.08,0c-7.3,0-13.88-3.06-18.52-7.98-4.91-4.65-7.98-11.23-7.98-18.52,0-.03,0-.06,0-.08h-15.17s0,.06,0,.08c0,14.08-11.42,25.5-25.5,25.5h-2.21c-14.08,0-25.5-11.42-25.5-25.5,0-.03,0-.06,0-.08h-15.17s0,.06,0,.08c0,14.08-11.42,25.5-25.5,25.5h-2.21c-14.08,0-25.5-11.42-25.5-25.5,0-.03,0-.06,0-.08h-15.17s0,.06,0,.08c0,14.08-11.42,25.5-25.5,25.5h-2.21c-14.08,0-25.5-11.42-25.5-25.5,0-.03,0-.06,0-.08h-15.17s0,.06,0,.08c0,7.3-3.06,13.88-7.98,18.52-4.65,4.91-11.23,7.98-18.52,7.98-.03,0-.06,0-.08,0v15.17s.06,0,.08,0c14.08,0,25.5,11.42,25.5,25.5v2.21c0,14.08-11.42,25.5-25.5,25.5-.03,0-.06,0-.08,0v15.17s.06,0,.08,0c14.08,0,25.5,11.42,25.5,25.5v2.21c0,14.08-11.42,25.5-25.5,25.5-.03,0-.06,0-.08,0v15.17s.06,0,.08,0c14.08,0,25.5,11.42,25.5,25.5v2.21c0,14.08-11.42,25.5-25.5,25.5-.03,0-.06,0-.08,0v15.17s.06,0,.08,0c7.3,0,13.88,3.06,18.52,7.98,4.91,4.65,7.98,11.23,7.98,18.52,0,.03,0,.06,0,.08h15.17s0-.06,0-.08c0-14.08,11.42-25.5,25.5-25.5h2.21c14.08,0,25.5,11.42,25.5,25.5,0,.03,0,.06,0,.08h15.17s0-.06,0-.08c0-14.08,11.42-25.5,25.5-25.5h2.21c14.08,0,25.5,11.42,25.5,25.5,0,.03,0,.06,0,.08h15.17s0-.06,0-.08c0-14.08,11.42-25.5,25.5-25.5h2.21c14.08,0,25.5,11.42,25.5,25.5,0,.03,0,.06,0,.08h15.17s0-.06,0-.08c0-7.3,3.06-13.88,7.98-18.52,4.65-4.91,11.23-7.98,18.52-7.98.03,0,.06,0,.08,0v-15.17s-.06,0-.08,0Z"/>
  <rect class="cls-1" x="70.24" y="67.26" width="178" height="178" rx="10.93" ry="10.93"/>
  <rect class="cls-4" x="65" y="61.92" width="178" height="178" rx="10.93" ry="10.93"/>
  <path class="cls-1" d="M206.39,131.44c0-24.39-19.78-44.17-44.17-44.17s-44.17,19.78-44.17,44.17,23.79,45.96,44.17,45.96c18.68,0,44.17-20.85,44.17-45.96Z"/>
  <path class="cls-1" d="M94.9,234.12v-29.32c0-12.35,10.58-22.06,22.89-20.99l39.82,3.46c2.55.22,5.12.22,7.68,0l38.25-3.4c12.32-1.1,22.93,8.61,22.93,20.98v29.27c0,2.04-1.66,3.7-3.7,3.7h-124.17c-2.04,0-3.7-1.66-3.7-3.7Z"/>
  <path class="cls-3" d="M199.71,130.44c0-24.39-19.78-44.17-44.17-44.17s-44.17,19.78-44.17,44.17,23.79,45.96,44.17,45.96c18.68,0,44.17-20.85,44.17-45.96Z"/>
  <path class="cls-3" d="M88.22,233.12v-29.32c0-12.35,10.58-22.06,22.89-20.99l39.82,3.46c2.55.22,5.12.22,7.68,0l38.25-3.4c12.32-1.1,22.93,8.61,22.93,20.98v29.27c0,2.04-1.66,3.7-3.7,3.7h-124.17c-2.04,0-3.7-1.66-3.7-3.7Z"/>
</svg>