<?xml version="1.0" encoding="UTF-8"?>
<svg id="Capa_33" data-name="Capa 33" xmlns="http://www.w3.org/2000/svg" viewBox="0 0 476.94 125.08">
  <defs>
    <style>
      .cls-1 {
        fill: #ffcf64;
      }
    </style>
  </defs>
  <path class="cls-1" d="M50.57,42.88c-6.54-20.7-23.27-26.17-38.45-17.47-1.62.93-2.7,2.57-2.99,4.41-1.66,10.38-6.37,46.1,6.21,52.5,1.41.72,3.06.84,4.57.36,2.54-.82,6.19-3.32,6.64-10.91.17-2.87,2.25-5.26,5.07-5.81,8.53-1.67,24.04-6.97,18.96-23.07ZM33.26,49.18s-5.15,1.32-6.99,0c-1.56-1.11,1.19-8.22,2.1-10.43.25-.61.9-1.01,1.54-.85.81.2,1.96.99,3.35,3.37,2.77,4.75,0,7.92,0,7.92Z"/>
  <path class="cls-1" d="M74.5,56.99s-1.23-.52-3.42-.85c-8.2-1.26-16.42,2.23-21.46,8.82-3.59,4.69-6.35,11.6-4.24,21.08.51,2.31.77,4.67.78,7.04.04,7.7,1.47,24.65,13.03,27.08,5.4,1.14,9.94.88,13.56.08,5.43-1.2,10.18-4.47,13.4-9,3.87-5.44,9.55-15.15,9.2-24.91-.53-14.73-12.23-27.13-20.85-29.34ZM71.85,101.99c-1.49,1.02-3.43.97-4.85-.14-2.08-1.62-4.8-5.49-5.2-14.67-.37-8.49,1.74-12.32,3.67-14.04,1.66-1.48,4.05-1.59,5.91-.38,2.16,1.41,4.8,4.75,5.33,12.7.71,10.7-2.48,14.9-4.86,16.53Z"/>
  <path class="cls-1" d="M341.03,5.47s-1.31-.26-3.52-.15c-8.28.41-15.64,5.48-19.25,12.95-2.58,5.32-3.89,12.64.08,21.5.97,2.16,1.69,4.42,2.18,6.74,1.59,7.54,6.38,23.85,18.2,23.92,5.51.03,9.92-1.13,13.3-2.64,5.08-2.26,9.07-6.42,11.32-11.51,2.7-6.1,6.32-16.76,4.02-26.25-3.47-14.32-17.42-24.13-26.31-24.55ZM347.46,50.08c-1.26,1.3-3.16,1.64-4.78.84-2.37-1.17-5.81-4.41-8.04-13.33-2.07-8.25-.77-12.42.78-14.49,1.33-1.78,3.65-2.37,5.72-1.56,2.4.95,5.66,3.69,7.77,11.37,2.84,10.34.56,15.09-1.44,17.17Z"/>
  <path class="cls-1" d="M435.02,92.92s1.06.81,3.1,1.69c7.62,3.28,16.45,1.98,22.99-3.13,4.66-3.64,9.07-9.62,9.42-19.33.09-2.37.43-4.72,1.02-7.01,1.9-7.46,4.8-24.22-5.78-29.5-4.94-2.46-9.4-3.36-13.1-3.5-5.55-.21-10.97,1.76-15.23,5.33-5.12,4.29-13.06,12.25-15.19,21.79-3.2,14.38,4.99,29.34,12.78,33.64ZM448.93,50.05c1.7-.61,3.56-.08,4.66,1.36,1.61,2.1,3.26,6.52,1.33,15.51-1.78,8.31-4.79,11.48-7.09,12.66-1.98,1.01-4.32.52-5.82-1.12-1.74-1.91-3.45-5.81-1.95-13.63,2.01-10.53,6.15-13.79,8.87-14.77Z"/>
  <path class="cls-1" d="M150.88,63.61c-.62-2.75-2.23-9.65-3.92-15.16-.58-1.9-.94-3.85-1.07-5.83-.39-5.75-1.7-18.19-5.82-23.37-5.45-6.86-37.3-7.21-42.76,0,0,0-5.99,4.54-1.81,26.36.34,1.78.45,3.59.28,5.39-.66,6.95-1.16,25.94,12.45,28.95,0,0,11.22,2.68,9.97-17.78-.06-1.03.84-1.87,1.87-1.72,2.45.36,7.25,2.52,14.95,11.75,1.76,2.11,4.13,3.68,6.83,4.23,3.88.79,8.65-.32,9.26-10.12.06-.9-.01-1.81-.21-2.69ZM117.05,41.82c-.92.1-1.85-.3-2.34-1.09-1.73-2.79-1.52-5.82-1.08-7.77.28-1.24,1.29-2.19,2.56-2.34,10.24-1.23,9.86.96,10.78,5.79.85,4.49-6.5,5.05-9.91,5.42Z"/>
  <path class="cls-1" d="M171.48,37.39c-.19-.03-.39-.06-.57-.11-1.88-.43-13.25-2.61-14.51,7.1-.89,6.82,4.12,8.55,7.8,8.91s6.47,3.16,6.78,6.77c.27,3.22.11,7.97-.97,14.97s-.88,11.92-.11,15.22c1.29,5.51,7.88,7.6,12.18,3.92,3.16-2.71,6.25-7.67,6.04-16.72-.42-18.23,3.99-19.72,3.99-19.72,0,0,8.26-3.77,9.71-6.92.82-1.79-.06-4.06-2.05-5.96-1.7-1.62-3.8-2.75-6.08-3.31-4.25-1.03-12.48-2.85-22.21-4.16Z"/>
  <path class="cls-1" d="M247.11,27.9c-2.03-2.7-3.61-5.7-4.68-8.9-.83-2.48-1.39-5.29-1.89-6.63-.66-1.74-2.47-3.64-6.1-5.82-7.74-4.66-17.86-.99-20.99,7.48-.83,2.25-1.64,4.97-2.36,8.26-.07.3-.12.62-.15.93l-3.47,35.08s-1.23,11.08,4.93,12.49c3.15.72,5.8.43,7.63-.03,1.81-.45,3.36-1.58,4.41-3.11,1.21-1.76,2.54-4.35,2.03-6.71-.55-2.54,2.01-4.52,3.99-5.65,1.35-.77,2.9-1.11,4.44-.98,2.9.25,7.67,1.29,8.63,5.39,1.13,4.79,7.9,4.62,10.55,4.36.84-.08,1.66-.3,2.43-.65,2.02-.94,5.6-3.35,5.85-8.63.26-5.54-10.06-19.99-15.24-26.87ZM233.88,39.6c-2.49.48-4.2.08-5.15-.3-.58-.23-.99-.75-1.09-1.37-.52-3.24-.24-8.53-.02-11.52.06-.75,1.04-1,1.45-.37,2.58,3.98,7.99,12.94,4.82,13.56Z"/>
  <path class="cls-1" d="M275.27,34.77s-10.86,10.38-14.12,34.03c-3.26,23.66,4.7,26.67,4.7,26.67,0,0,8.87,4.69,11.55-4.34,0,0,.81-9.21,3.25-13.02.44-.68,1.28-.97,2.06-.76,3.44.93,13.82,3.05,18.3-3.39,5.41-7.79-7.77-12.97-7.77-12.97,0,0-8.76-4.33-7.4-6.9.99-1.87,4.55-1.9,6.4-1.79.66.04,1.29.18,1.9.42,3.3,1.31,16.45,5.94,19.02-2.69,2.94-9.89-12.41-14.73-12.41-14.73,0,0-16.4-7.38-25.49-.54Z"/>
  <path class="cls-1" d="M381.1,36.68c-2.51.1-4.6,1.98-5.15,4.43-2.07,9.21-8.55,40.29-3.62,48.35,5.32,8.7,20.6,6.56,23.13,6.13.24-.04.47-.06.71-.06,2.11-.02,13.06-.42,12.58-6.86-.39-5.28-10.71-8.25-16.02-9.42-1.92-.43-3.38-2-3.66-3.94-.59-4.04-1.23-10.75.3-14.33.17-.39.32-.79.4-1.22.67-3.69,3.42-21.9-6.77-23.08,0,0-.77-.04-1.89,0Z"/>
  <path class="cls-1" d="M402.46,16.29s-7.4-.77-4.89,16.78c.08.57.13,1.16.13,1.74,0,4.59.27,26.55,4.75,30.57,5.01,4.49,8.45,0,8.45,0,0,0,3.43-1.58,1.58-25.86-1.85-24.28-10.03-23.23-10.03-23.23Z"/>
</svg>