<?xml version="1.0" encoding="UTF-8"?>
<svg id="Capa_33" data-name="Capa 33" xmlns="http://www.w3.org/2000/svg" viewBox="0 0 206.97 135.06">
  <defs>
    <style>
      .cls-1 {
        fill: #ffcf64;
      }
    </style>
  </defs>
  <path class="cls-1" d="M169.11,39.61c-1-1.69-3.54-5.92-5.83-9.21-.79-1.13-1.44-2.35-1.96-3.63-1.49-3.73-5.01-11.69-8.85-14.25-5.08-3.38-26.26,3.18-28.33,9.13,0,0-3,4.29,4.42,17.85.61,1.11,1.06,2.28,1.33,3.52,1.05,4.75,4.77,17.44,14.43,16.53,0,0,8.01-.62,2.81-13.91-.26-.67.16-1.42.87-1.54,1.7-.28,5.34.12,12.41,4.59,1.62,1.02,3.52,1.56,5.43,1.34,2.74-.31,5.66-2.06,3.98-8.68-.16-.61-.39-1.2-.71-1.74ZM142.04,32.39c-.59.26-1.29.19-1.78-.22-1.74-1.48-2.25-3.53-2.38-4.92-.08-.88.39-1.73,1.19-2.1,6.53-3,6.74-1.47,8.38,1.54,1.52,2.79-3.23,4.74-5.41,5.71Z"/>
  <path class="cls-1" d="M70.2,26.11s-.86-.44-2.43-.79c-5.86-1.33-11.98.77-15.97,5.27-2.84,3.21-5.19,8.06-4.15,15.02.25,1.7.32,3.42.2,5.13-.37,5.57-.21,17.89,8.03,20.25,3.84,1.1,7.14,1.15,9.8.76,3.98-.59,7.59-2.71,10.15-5.82,3.08-3.73,7.69-10.46,7.94-17.54.38-10.67-7.44-20.24-13.56-22.28ZM65.97,58.5c-1.13.66-2.53.53-3.5-.35-1.42-1.28-3.19-4.22-3.01-10.87.17-6.16,1.89-8.81,3.38-9.96,1.27-.98,3.01-.94,4.29.03,1.49,1.13,3.22,3.68,3.2,9.46-.04,7.77-2.56,10.64-4.36,11.7Z"/>
  <path class="cls-1" d="M127.03,83.5s-5.95,1.26.41,14.27c.21.43.39.87.54,1.32,1.15,3.56,6.86,20.58,11.35,22.58,5.02,2.23,6.57-2.12,6.57-2.12,0,0,2.27-2.09-5.25-20.51-7.52-18.42-13.62-15.55-13.62-15.55Z"/>
  <path class="cls-1" d="M173.08,12c-.77,3.25-1.47,9.31.87,17.36.17.59.26,1.2.25,1.82-.07,3.27.28,14.66,8.53,16.99,9.66,2.74,19.06-1.86,19.06-1.86,0,0,4.83-2,4.26-6.43s-5.67-4.06-5.67-4.06c0,0-11.9,1.07-12.11-1.3s5.57-2.62,5.85-2.71,6.79-1.33,6.86-7.63c0,0,.01-6.37-9.08-4.27,0,0-7.21.31-6.33-1.33s6.69-2.21,6.69-2.21c0,0,11.74,1.6,11.07-3.55s-3.6-6.51-3.6-6.51c0,0-12.63-3.75-20.81-.66,0,0-.7.17-1.68.72-2.12,1.2-3.59,3.27-4.15,5.64Z"/>
  <path class="cls-1" d="M12.1,43.06s-9.87,7.96.6,19.16c0,0,4.71,4.11,9.85,3.8,3.76-.22,5.91,2.17,6.79,3.47.43.63.18,1.5-.53,1.78-.85.34-2.42.52-5.32-.08s-5.34.15-7.28,1.1c-2.84,1.4-4.68,4.28-4.48,7.43.17,2.62,1.49,5.43,6.21,6,7.52.91,13.76-.3,15.84-.79.49-.11.95-.29,1.39-.54,2.37-1.34,10.41-6.31,11.05-12.62,0,0,2.47-11.67-3.6-13.45s-16.11-4.91-16.11-4.91c0,0-4.38-1.6-3.1-3.79s6.75-.85,6.75-.85c0,0,7.59,1.36,9.12-2.77s-3.38-8.19-3.38-8.19c0,0-6.35-4.49-13.75-1.54-7.41,2.95-10.04,6.78-10.04,6.78Z"/>
  <path class="cls-1" d="M118.49,43.01s-2.27-1.99.04-3.68c0,0,3.37-1.77,1.93-8.37-.67-3.05-1.88-5.43-2.98-7.11-1.25-1.89-3.38-2.99-5.65-2.96-4.69.07-13.66.46-20.94,2.24-.37.09-.72.24-1.04.43-.02.01-.05.03-.08.05-2.94,1.82-4.6,5.16-4.35,8.61.21,2.86.83,7.15,2.6,11.79.31.8.48,1.65.54,2.5.16,2.2.45,6.59.54,10.59.04,1.68.26,3.35.69,4.97.89,3.32,2.74,8.18,6.01,8.37,4.99.3,8.77-1.47,8.77-1.47,0,0,21.38-10.42,22.11-18.27.73-7.85-8.19-7.69-8.19-7.69ZM98.54,35.22c-.08-.63.28-1.24.87-1.47,3.38-1.32,5.16-.34,5.16-.34,0,0,3.76.93,2.79,3.28-.71,1.71-4.14,2.47-5.97,2.75-.73.11-1.44-.26-1.78-.92-.71-1.35-.98-2.52-1.08-3.31ZM113.24,52.06c-.81,1.71-2.3,2.46-3.21,2.78-.48.17-.91.44-1.28.79-.75.73-1.76,1.29-2.59,1.66-1,.46-2.18.09-2.75-.85-.92-1.53-1.03-3.28-.99-4.31.02-.68.29-1.34.78-1.81,1.57-1.47,3.92-.85,5.22-.33.67.27,1.38.36,2.09.31,1.41-.11,3.55,0,2.71,1.76Z"/>
  <path class="cls-1" d="M70.8,98.85s.24,33.24,10.93,33.92c10.68.69,7.06-9.71,7.06-9.71l-3.16-9.82s5.29,12.99,11.16,14.13,8.67-13.26,8.67-13.26c0,0,.5,16.08,7.31,14.99,6.81-1.09,6.86-6.06,6.86-6.06l-4.91-30.63s-2.07-8.14-6.63-8.6c-3.6-.36-7.4,3.98-8.83,5.82-.4.52-.72,1.09-.96,1.7-.99,2.54-3.63,10.04-3.33,16.91.01.33-.43.44-.56.13-1.53-3.65-5.28-11.93-9.4-15.88-5.38-5.15-9.38-3.04-9.38-3.04,0,0-5.14,2.51-4.82,9.4Z"/>
</svg>