<?xml version="1.0" encoding="UTF-8"?>
<svg id="Postal_portafolio" data-name="Postal portafolio" xmlns="http://www.w3.org/2000/svg" viewBox="0 0 309.45 297.19">
  <defs>
    <style>
      .cls-1, .cls-2, .cls-3 {
        opacity: .3;
      }

      .cls-1, .cls-4 {
        fill: #1a4895;
      }

      .cls-5 {
        fill: #cfe7cd;
      }

      .cls-6 {
        fill: #faca2a;
      }

      .cls-7 {
        stroke: #1e79ae;
        stroke-width: 10px;
      }

      .cls-7, .cls-8 {
        fill: none;
        stroke-miterlimit: 10;
      }

      .cls-9 {
        fill: #1e79ae;
      }

      .cls-8 {
        stroke: #1a4895;
        stroke-width: 8px;
      }

      .cls-3 {
        fill: #606060;
      }

      .cls-10 {
        fill: #f8edaf;
      }
    </style>
  </defs>
  <path class="cls-3" d="M293.45,250.76c-14.08,0-25.5-11.42-25.5-25.5v-2.21c0-14.08,11.42-25.5,25.5-25.5.03,0,.06,0,.08,0v-15.17s-.06,0-.08,0c-14.08,0-25.5-11.42-25.5-25.5v-2.21c0-14.08,11.42-25.5,25.5-25.5.03,0,.06,0,.08,0v-15.17s-.06,0-.08,0c-14.08,0-25.5-11.42-25.5-25.5v-2.21c0-14.08,11.42-25.5,25.5-25.5.03,0,.06,0,.08,0v-15.17s-.06,0-.08,0c-7.3,0-13.88-3.06-18.52-7.98-4.91-4.65-7.98-11.23-7.98-18.52,0-.03,0-.06,0-.08h-15.17s0,.06,0,.08c0,14.08-11.42,25.5-25.5,25.5h-2.21c-14.08,0-25.5-11.42-25.5-25.5,0-.03,0-.06,0-.08h-15.17s0,.06,0,.08c0,14.08-11.42,25.5-25.5,25.5h-2.21c-14.08,0-25.5-11.42-25.5-25.5,0-.03,0-.06,0-.08h-15.17s0,.06,0,.08c0,14.08-11.42,25.5-25.5,25.5h-2.21c-14.08,0-25.5-11.42-25.5-25.5,0-.03,0-.06,0-.08h-15.17s0,.06,0,.08c0,7.3-3.06,13.88-7.98,18.52-4.65,4.91-11.23,7.98-18.52,7.98-.03,0-.06,0-.08,0v15.17s.06,0,.08,0c14.08,0,25.5,11.42,25.5,25.5v2.21c0,14.08-11.42,25.5-25.5,25.5-.03,0-.06,0-.08,0v15.17s.06,0,.08,0c14.08,0,25.5,11.42,25.5,25.5v2.21c0,14.08-11.42,25.5-25.5,25.5-.03,0-.06,0-.08,0v15.17s.06,0,.08,0c14.08,0,25.5,11.42,25.5,25.5v2.21c0,14.08-11.42,25.5-25.5,25.5-.03,0-.06,0-.08,0v15.17s.06,0,.08,0c7.3,0,13.88,3.06,18.52,7.98,4.91,4.65,7.98,11.23,7.98,18.52,0,.03,0,.06,0,.08h15.17s0-.06,0-.08c0-14.08,11.42-25.5,25.5-25.5h2.21c14.08,0,25.5,11.42,25.5,25.5,0,.03,0,.06,0,.08h15.17s0-.06,0-.08c0-14.08,11.42-25.5,25.5-25.5h2.21c14.08,0,25.5,11.42,25.5,25.5,0,.03,0,.06,0,.08h15.17s0-.06,0-.08c0-14.08,11.42-25.5,25.5-25.5h2.21c14.08,0,25.5,11.42,25.5,25.5,0,.03,0,.06,0,.08h15.17s0-.06,0-.08c0-7.3,3.06-13.88,7.98-18.52,4.65-4.91,11.23-7.98,18.52-7.98.03,0,.06,0,.08,0v-15.17s-.06,0-.08,0Z"/>
  <path class="cls-10" d="M286.24,247.76c-14.08,0-25.5-11.42-25.5-25.5v-2.21c0-14.08,11.42-25.5,25.5-25.5.03,0,.06,0,.08,0v-15.17s-.06,0-.08,0c-14.08,0-25.5-11.42-25.5-25.5v-2.21c0-14.08,11.42-25.5,25.5-25.5.03,0,.06,0,.08,0v-15.17s-.06,0-.08,0c-14.08,0-25.5-11.42-25.5-25.5v-2.21c0-14.08,11.42-25.5,25.5-25.5.03,0,.06,0,.08,0v-15.17s-.06,0-.08,0c-7.3,0-13.88-3.06-18.52-7.98-4.91-4.65-7.98-11.23-7.98-18.52,0-.03,0-.06,0-.08h-15.17s0,.06,0,.08c0,14.08-11.42,25.5-25.5,25.5h-2.21c-14.08,0-25.5-11.42-25.5-25.5,0-.03,0-.06,0-.08h-15.17s0,.06,0,.08c0,14.08-11.42,25.5-25.5,25.5h-2.21c-14.08,0-25.5-11.42-25.5-25.5,0-.03,0-.06,0-.08h-15.17s0,.06,0,.08c0,14.08-11.42,25.5-25.5,25.5h-2.21c-14.08,0-25.5-11.42-25.5-25.5,0-.03,0-.06,0-.08h-15.17s0,.06,0,.08c0,7.3-3.06,13.88-7.98,18.52-4.65,4.91-11.23,7.98-18.52,7.98-.03,0-.06,0-.08,0v15.17s.06,0,.08,0c14.08,0,25.5,11.42,25.5,25.5v2.21c0,14.08-11.42,25.5-25.5,25.5-.03,0-.06,0-.08,0v15.17s.06,0,.08,0c14.08,0,25.5,11.42,25.5,25.5v2.21c0,14.08-11.42,25.5-25.5,25.5-.03,0-.06,0-.08,0v15.17s.06,0,.08,0c14.08,0,25.5,11.42,25.5,25.5v2.21c0,14.08-11.42,25.5-25.5,25.5-.03,0-.06,0-.08,0v15.17s.06,0,.08,0c7.3,0,13.88,3.06,18.52,7.98,4.91,4.65,7.98,11.23,7.98,18.52,0,.03,0,.06,0,.08h15.17s0-.06,0-.08c0-14.08,11.42-25.5,25.5-25.5h2.21c14.08,0,25.5,11.42,25.5,25.5,0,.03,0,.06,0,.08h15.17s0-.06,0-.08c0-14.08,11.42-25.5,25.5-25.5h2.21c14.08,0,25.5,11.42,25.5,25.5,0,.03,0,.06,0,.08h15.17s0-.06,0-.08c0-14.08,11.42-25.5,25.5-25.5h2.21c14.08,0,25.5,11.42,25.5,25.5,0,.03,0,.06,0,.08h15.17s0-.06,0-.08c0-7.3,3.06-13.88,7.98-18.52,4.65-4.91,11.23-7.98,18.52-7.98.03,0,.06,0,.08,0v-15.17s-.06,0-.08,0Z"/>
  <rect class="cls-1" x="65.02" y="67.85" width="178" height="178" rx="10.93" ry="10.93"/>
  <rect class="cls-5" x="60.6" y="63.78" width="178" height="178" rx="10.93" ry="10.93"/>
  <g class="cls-2">
    <rect class="cls-4" x="82" y="114.96" width="144.04" height="97.39" rx="17.62" ry="17.62"/>
    <rect class="cls-1" x="82" y="119.51" width="144.04" height="66.13" rx="17.62" ry="17.62"/>
    <rect class="cls-4" x="82" y="114.96" width="144.04" height="66.13" rx="17.62" ry="17.62"/>
    <rect class="cls-1" x="129.11" y="173" width="49.83" height="24.01" rx="6.81" ry="6.81"/>
    <rect class="cls-4" x="129.11" y="169.09" width="49.83" height="24.01" rx="6.81" ry="6.81"/>
    <path class="cls-8" d="M128.59,119.51l-1.24-5.59c-1.38-6.2,3.34-12.08,9.69-12.08,11.77,0,23.18,0,34.24,0,6.44,0,11.07,6.18,9.26,12.36l-1.07,3.64"/>
  </g>
  <g>
    <rect class="cls-9" x="77.58" y="110.65" width="144.04" height="97.39" rx="17.62" ry="17.62"/>
    <rect class="cls-1" x="77.58" y="115.2" width="144.04" height="66.13" rx="17.62" ry="17.62"/>
    <rect class="cls-9" x="77.58" y="110.65" width="144.04" height="66.13" rx="17.62" ry="17.62"/>
    <rect class="cls-1" x="124.69" y="168.69" width="49.83" height="24.01" rx="6.81" ry="6.81"/>
    <rect class="cls-6" x="124.69" y="164.78" width="49.83" height="24.01" rx="6.81" ry="6.81"/>
    <path class="cls-7" d="M124.17,115.2l-1.24-5.59c-1.38-6.2,3.34-12.08,9.69-12.08,11.77,0,23.18,0,34.24,0,6.44,0,11.07,6.18,9.26,12.36l-1.07,3.64"/>
  </g>
</svg>