<?xml version="1.0" encoding="UTF-8"?>
<svg id="Capa_33" data-name="Capa 33" xmlns="http://www.w3.org/2000/svg" viewBox="0 0 2561.85 558.26">
  <defs>
    <style>
      .cls-1 {
        fill: #f7edaf;
      }

      .cls-2 {
        fill: #ee3a23;
      }

      .cls-3 {
        fill: none;
        stroke: #ee3a23;
        stroke-linecap: round;
        stroke-miterlimit: 10;
        stroke-width: 15px;
      }
    </style>
  </defs>
  <g>
    <path class="cls-1" d="M1093.46,187.22s-1.83-.8-5.11-1.34c-12.26-2.03-24.64,3.06-32.31,12.84-5.47,6.97-9.72,17.27-6.73,31.51.73,3.47,1.07,7.01,1.05,10.56-.08,11.54,1.76,36.96,19.05,40.81,8.06,1.8,14.88,1.49,20.31.36,8.15-1.7,15.33-6.52,20.23-13.25,5.89-8.08,14.58-22.53,14.23-37.17-.53-22.08-17.84-40.87-30.72-44.32ZM1088.69,254.58c-2.25,1.51-5.15,1.4-7.27-.29-3.09-2.47-7.1-8.31-7.53-22.08-.4-12.73,2.83-18.42,5.75-20.96,2.51-2.18,6.1-2.31,8.87-.47,3.22,2.15,7.11,7.21,7.76,19.13.87,16.05-3.98,22.27-7.57,24.68Z"/>
    <path class="cls-1" d="M1231.16,183.56c-.29-.04-.58-.1-.86-.17-2.82-.68-19.8-4.14-21.86,10.37-1.45,10.2,6.02,12.88,11.52,13.49,5.4.6,9.64,4.85,10.04,10.26.35,4.83.02,11.94-1.71,22.42-1.76,10.6-1.54,17.85-.44,22.81,1.83,8.27,11.68,11.53,18.18,6.1,4.79-4,9.5-11.38,9.35-24.94-.3-27.33,6.33-29.48,6.33-29.48,0,0,12.44-5.5,14.67-10.2,1.26-2.66-.01-6.08-2.97-8.97-2.51-2.46-5.64-4.19-9.05-5.06-6.35-1.61-18.65-4.49-33.2-6.63Z"/>
    <path class="cls-1" d="M1003.74,179.67c-.28.12-.56.26-.83.41-3.81,2.13-32.2,18.99-29.96,47.11,2.12,26.62,15.03,39.63,18.02,42.31.42.38.86.69,1.35.97,4.36,2.48,27.66,13.72,51.63-12.82,0,0,7.4-11.99-21.46-6.2-5.66,1.14-11.55-.52-15.75-4.48-4.62-4.35-9.14-11.07-8.04-20.2,1.44-11.99,8.28-17.71,12.52-20.15,1.85-1.07,4.06-1.29,6.12-.73,4.97,1.36,15.68,3.19,21.82-3.81,8.19-9.34-3.53-20.27-3.53-20.27,0,0-11.01-11.08-31.87-2.15Z"/>
    <path class="cls-1" d="M1385.02,281.02c.3-.08.59-.17.88-.29,4.08-1.57,34.57-14.23,36.34-42.39,1.68-26.65-9.25-41.36-11.83-44.44-.36-.43-.75-.8-1.2-1.15-3.97-3.07-25.44-17.5-52.92,5.36,0,0-9.03,10.82,20.36,9.18,5.77-.32,11.36,2.15,14.96,6.67,3.96,4.96,7.48,12.25,5.1,21.14-3.13,11.66-10.71,16.36-15.26,18.17-1.99.79-4.2.7-6.16-.15-4.73-2.05-15.07-5.39-22.14.67-9.43,8.08.62,20.57.62,20.57,0,0,9.33,12.53,31.25,6.65Z"/>
    <path class="cls-1" d="M1673.21,208.3c-2.53,6.19-5.81,17.99-3.66,34.65.16,1.22.14,2.47-.08,3.68-1.16,6.46-4.01,29.11,11.6,36.31,18.28,8.42,38.33,2.24,38.33,2.24,0,0,10.18-2.46,10.44-11.41.26-8.95-9.98-9.81-9.98-9.81,0,0-23.89-1.57-23.58-6.34.31-4.77,11.84-3.46,12.42-3.55.58-.09,13.86-.52,15.95-12.99,0,0,2.01-12.6-16.66-11.28,0,0-14.38-1.63-12.12-4.6,2.26-2.97,13.94-2.3,13.94-2.3,0,0,22.75,6.83,23.02-3.59.26-10.41-5.1-14.02-5.1-14.02,0,0-23.85-11.36-41.01-7.78,0,0-1.45.13-3.55.91-4.57,1.71-8.12,5.37-9.97,9.88Z"/>
    <path class="cls-1" d="M1565.48,206.91s-9.85,65.9,11.1,70.59c20.95,4.68,17-17.03,17-17.03l-3.21-20.44s6.43,27.38,17.71,31.46c11.28,4.08,21.29-23.56,21.29-23.56,0,0-4.01,32.01,9.81,31.96,13.82-.05,15.47-9.88,15.47-9.88l-.2-62.19s-1.57-16.77-10.45-19.1c-7.01-1.84-15.88,5.58-19.3,8.77-.96.9-1.77,1.93-2.43,3.06-2.74,4.72-10.3,18.76-11.86,32.44-.07.65-.99.73-1.14.09-1.89-7.69-6.74-25.26-13.68-34.37-9.05-11.87-17.63-8.93-17.63-8.93,0,0-10.96,3.38-12.47,17.12Z"/>
    <path class="cls-1" d="M1329.17,220.23c-2.81-3.73-5-7.89-6.48-12.33-1.15-3.43-1.92-7.33-2.62-9.18-.91-2.41-3.42-5.03-8.45-8.06-10.71-6.45-24.72-1.37-29.06,10.36-1.15,3.11-2.27,6.88-3.27,11.44-.09.42-.16.85-.2,1.28l-4.81,48.56s-1.7,15.34,6.82,17.29c4.36,1,8.03.59,10.56-.04,2.5-.63,4.65-2.18,6.11-4.31,1.67-2.43,3.52-6.02,2.81-9.29-.76-3.51,2.78-6.26,5.53-7.82,1.87-1.06,4.01-1.54,6.15-1.35,4.02.35,10.61,1.79,11.95,7.46,1.56,6.63,10.94,6.39,14.61,6.03,1.17-.11,2.3-.41,3.36-.9,2.8-1.3,7.75-4.63,8.1-11.95.37-7.67-13.93-27.67-21.1-37.2ZM1310.86,236.42c-3.44.67-5.81.12-7.13-.42-.8-.32-1.37-1.04-1.51-1.89-.72-4.49-.34-11.8-.03-15.95.08-1.04,1.43-1.39,2-.51,3.57,5.51,11.06,17.92,6.67,18.77Z"/>
    <path class="cls-1" d="M1445.32,188.92c-.29-.04-.58-.1-.86-.17-2.82-.68-19.8-4.14-21.86,10.37-1.45,10.2,6.02,12.88,11.52,13.49,5.4.6,9.64,4.85,10.04,10.26.35,4.83.02,11.94-1.71,22.42-1.76,10.6-1.54,17.85-.44,22.81,1.83,8.27,11.68,11.53,18.18,6.1,4.79-4,9.5-11.38,9.35-24.94-.3-27.33,6.33-29.48,6.33-29.48,0,0,12.44-5.5,14.67-10.2,1.26-2.66-.01-6.08-2.97-8.97-2.51-2.46-5.64-4.19-9.05-5.06-6.35-1.61-18.65-4.49-33.2-6.63Z"/>
    <path class="cls-1" d="M1543.33,225.59c-2.81-3.73-5-7.89-6.48-12.33-1.15-3.43-1.92-7.33-2.62-9.18-.91-2.41-3.42-5.03-8.45-8.06-10.71-6.45-24.72-1.37-29.06,10.36-1.15,3.11-2.27,6.88-3.27,11.44-.09.42-.16.85-.2,1.28l-4.81,48.56s-1.7,15.34,6.82,17.29c4.36,1,8.03.59,10.56-.04,2.5-.63,4.65-2.18,6.11-4.31,1.67-2.43,3.52-6.02,2.81-9.29-.76-3.51,2.78-6.26,5.53-7.82,1.87-1.06,4.01-1.54,6.15-1.35,4.02.35,10.61,1.79,11.95,7.46,1.56,6.63,10.94,6.39,14.61,6.03,1.17-.11,2.3-.41,3.36-.9,2.8-1.3,7.75-4.63,8.1-11.95.37-7.67-13.93-27.67-21.1-37.2ZM1525.03,241.78c-3.44.67-5.81.12-7.13-.42-.8-.32-1.37-1.04-1.51-1.89-.72-4.49-.34-11.8-.03-15.95.08-1.04,1.43-1.39,2-.51,3.57,5.51,11.06,17.92,6.67,18.77Z"/>
    <path class="cls-1" d="M1128,204.21s6.48,67.67,22.32,71.99c8.48,2.31,12.29-3.95,13.99-10.26,1.49-5.54,1.25-11.4-.39-16.89l-6.7-22.47c-.07-.24.27-.38.38-.15,3.76,7.39,16.63,32.29,20.56,34.9,0,0,9.36,6.72,21.36,1.92s8.16-44.15,8.16-44.15c0,0-4.08-44.63-23.28-44.63,0,0-13.92,2.16-7.68,26.88,4.02,15.94,4.95,21.4,5.11,23.27.02.28-.35.39-.47.14-3.13-6.29-23.9-45.86-47.11-39.01,0,0-8.08,3.66-6.24,18.48Z"/>
    <path class="cls-1" d="M1306.04,164.44s-7.82,9.99-5.05,14.18,9.52,3.92,9.52,3.92c0,0,17.3-15.67,12.73-25.28s-17.2,7.18-17.2,7.18Z"/>
  </g>
  <g>
    <path class="cls-1" d="M2422.57,20.89s-1.57-.68-4.39-1.15c-10.53-1.74-21.15,2.62-27.74,11.02-4.69,5.98-8.34,14.82-5.78,27.05.63,2.98.92,6.02.9,9.07-.06,9.91,1.51,31.73,16.35,35.04,6.92,1.54,12.78,1.28,17.44.31,7-1.46,13.16-5.6,17.37-11.37,5.06-6.93,12.52-19.34,12.22-31.91-.45-18.95-15.32-35.09-26.37-38.05ZM2418.47,78.72c-1.93,1.29-4.42,1.2-6.24-.25-2.66-2.12-6.09-7.14-6.47-18.95-.35-10.93,2.43-15.82,4.94-18,2.15-1.87,5.24-1.99,7.61-.4,2.76,1.84,6.1,6.19,6.66,16.42.75,13.78-3.42,19.12-6.5,21.18Z"/>
    <path class="cls-1" d="M2220.57,89.72c-.76-3.54-2.72-12.45-4.81-19.56-.72-2.45-1.15-4.97-1.29-7.52-.42-7.41-1.91-23.42-7.14-30.15-6.91-8.91-47.87-9.85-55-.65,0,0-7.78,5.74-2.74,33.88.41,2.29.52,4.62.27,6.94-.95,8.93-1.89,33.35,15.57,37.43,0,0,14.39,3.62,13.1-22.72-.07-1.33,1.11-2.39,2.43-2.18,3.14.51,9.29,3.35,19.05,15.34,2.23,2.74,5.26,4.79,8.71,5.54,4.98,1.07,11.13-.27,12.07-12.88.09-1.16.01-2.33-.23-3.47ZM2177.38,61.17c-1.19.11-2.37-.42-2.99-1.44-2.19-3.61-1.87-7.51-1.28-10.02.38-1.6,1.69-2.8,3.33-2.98,13.2-1.42,12.67,1.39,13.78,7.61,1.03,5.78-8.44,6.4-12.84,6.82Z"/>
    <path class="cls-1" d="M2080.84,56.04c-.13.37-.66.3-.71-.08-.71-6.21-3.95-27.27-15.42-29.95-6.74-1.58-10.23.66-12.04,3.28-1.61,2.34-2,5.3-1.37,8.06,2.06,8.94,9.07,39.81,8.7,43.97-.43,4.88,1.69,22.81,9.42,23.03,7.73.22,12.43-11.1,15.52-17.36,3.1-6.26,14.11-21.71,14.11-21.71,0,0,12.81-24.63,9.45-29.87,0,0-3.75-9.26-13.1-3.03-7.69,5.12-12.94,18.91-14.57,23.66Z"/>
    <path class="cls-1" d="M2461.82,34.25s-18.91,10.89-4.09,32.74c0,0,6.91,8.24,15.72,9.1,6.45.62,9.47,5.26,10.62,7.71.56,1.18-.1,2.59-1.37,2.89-1.54.36-4.26.23-9.02-1.55-4.6-1.72-9.12-1.17-12.67-.07-5.2,1.62-9.11,6.02-9.61,11.44-.42,4.49,1.09,9.62,8.95,11.85,12.54,3.56,23.48,3.16,27.14,2.89.86-.06,1.69-.25,2.5-.55,4.38-1.64,19.38-7.95,22.15-18.51,0,0,7.32-19.17-2.53-23.83s-26.08-12.65-26.08-12.65c0,0-7.02-3.89-4.26-7.27,2.75-3.38,11.71.36,11.71.36,0,0,12.55,4.33,16.25-2.28s-3.56-14.83-3.56-14.83c0,0-9.59-9.33-22.97-6.29-13.38,3.04-18.88,8.85-18.88,8.85Z"/>
    <path class="cls-1" d="M2300.91,41.52s-8.46,56.58,9.53,60.6c17.98,4.02,14.59-14.62,14.59-14.62l-2.76-17.55s5.52,23.51,15.2,27.01c9.68,3.5,18.28-20.22,18.28-20.22,0,0-3.44,27.48,8.42,27.44,11.87-.04,13.28-8.48,13.28-8.48l-.18-53.39s-1.35-14.4-8.97-16.4c-6.02-1.58-13.64,4.79-16.57,7.53-.82.77-1.52,1.66-2.09,2.63-2.35,4.05-8.85,16.1-10.18,27.85-.06.56-.85.63-.98.08-1.62-6.61-5.79-21.69-11.75-29.5-7.77-10.19-15.13-7.67-15.13-7.67,0,0-9.41,2.9-10.7,14.7Z"/>
    <path class="cls-1" d="M2274.44,53.94c-2.41-3.21-4.29-6.77-5.56-10.58-.98-2.95-1.65-6.29-2.25-7.88-.78-2.06-2.93-4.32-7.25-6.92-9.19-5.53-21.22-1.17-24.94,8.89-.99,2.67-1.95,5.9-2.81,9.82-.08.36-.14.73-.17,1.1l-4.13,41.69s-1.46,13.17,5.85,14.85c3.75.86,6.89.51,9.07-.04,2.15-.54,3.99-1.87,5.25-3.7,1.43-2.09,3.02-5.17,2.41-7.97-.66-3.01,2.38-5.37,4.75-6.71,1.61-.91,3.44-1.32,5.28-1.16,3.45.3,9.11,1.54,10.26,6.41,1.34,5.7,9.39,5.49,12.54,5.18,1-.1,1.97-.35,2.88-.78,2.4-1.12,6.65-3.98,6.95-10.26.31-6.59-11.96-23.76-18.11-31.93ZM2258.73,67.84c-2.96.57-4.99.1-6.12-.36-.69-.28-1.18-.89-1.3-1.62-.62-3.85-.29-10.13-.02-13.69.07-.9,1.23-1.19,1.72-.44,3.07,4.73,9.5,15.38,5.72,16.11Z"/>
    <path class="cls-1" d="M1980.47,41.55s-4.58,58.18,8.17,64.18c6.83,3.22,10.97-1.51,13.35-6.6,2.08-4.46,2.75-9.45,2.18-14.34l-2.32-19.99c-.02-.21.28-.28.35-.07,2.08,6.81,9.26,29.78,12.2,32.56,0,0,6.91,7.07,17.77,4.8s13.46-36.12,13.46-36.12c0,0,3.18-38.34-13.05-41.2,0,0-12.09-.24-10.49,21.58,1.03,14.07,1.01,18.83.86,20.44-.02.24-.35.27-.42.05-1.71-5.78-13.39-42.33-34.03-39.98,0,0-7.37,1.89-8.02,14.7Z"/>
    <path class="cls-1" d="M2109.89,97.28s-17.94-.35-20.26,3.69,3.76,8.59,3.76,8.59c0,0,32.45,4.04,39.34-4s-22.84-8.28-22.84-8.28Z"/>
    <path class="cls-1" d="M2417.28,56.81s-9.82-15.02-12.85-15.72-1.59,5.73-1.59,5.73c0,0,16.31,28.2,23.59,31.48,7.28,3.28-9.15-21.49-9.15-21.49Z"/>
    <path class="cls-1" d="M1969.47,49.26c-8.23-26.46-42.33-23.67-57.07-21.13-6.43,1.11-11.2,6.53-11.55,13.04-.32,6.11,1.07,15.18,6.67,28.4,0,0-3.81,35.84,8.24,43.04,12.05,7.21,44.27-17.22,44.27-17.22,0,0,20.01-12.12,9.43-46.14ZM1935.49,87.47c-1.54.24-2.93-.92-3-2.47-.53-11.69-4.67-26.73-6.44-32.73-.44-1.47.47-3,1.98-3.31,5.07-1.06,15.3-2.33,15.17,4.59-.17,9.2,4.92,19.39,4.92,19.39.24,11.04-8.04,13.83-12.62,14.53Z"/>
  </g>
  <g>
    <path class="cls-1" d="M77.53,471.92s-30.93-.6-34.91,5.32,6.52,12.62,6.52,12.62c0,0,55.96,6.09,67.8-5.67,11.83-11.76-39.41-12.26-39.41-12.26Z"/>
    <path class="cls-1" d="M77.53,507.9s-30.93-.6-34.91,5.32c-3.98,5.92,6.52,12.62,6.52,12.62,0,0,55.96,6.09,67.8-5.67,11.83-11.76-39.41-12.26-39.41-12.26Z"/>
    <path class="cls-1" d="M52.52,499.84s-2.01,30.87,3.72,35.12,12.9-5.94,12.9-5.94c0,0,8.64-55.63-2.57-67.98s-14.05,38.8-14.05,38.8Z"/>
    <path class="cls-1" d="M88.45,501.48s-2.01,30.87,3.72,35.12,12.9-5.94,12.9-5.94c0,0,8.64-55.63-2.57-67.98-11.21-12.36-14.05,38.8-14.05,38.8Z"/>
    <g>
      <path class="cls-1" d="M886.98,440.87s-1.57-.68-4.39-1.15c-10.53-1.74-21.15,2.62-27.74,11.02-4.69,5.98-8.34,14.82-5.78,27.05.63,2.98.92,6.02.9,9.07-.06,9.91,1.51,31.73,16.35,35.04,6.92,1.54,12.78,1.28,17.44.31,7-1.46,13.16-5.6,17.37-11.37,5.06-6.93,12.52-19.34,12.22-31.91-.45-18.95-15.32-35.09-26.37-38.05ZM882.88,498.7c-1.93,1.29-4.42,1.2-6.24-.25-2.66-2.12-6.09-7.14-6.47-18.95-.35-10.93,2.43-15.82,4.94-18,2.15-1.87,5.24-1.99,7.61-.4,2.76,1.84,6.1,6.19,6.66,16.42.75,13.78-3.42,19.12-6.5,21.18Z"/>
      <path class="cls-1" d="M881.69,476.79s-9.82-15.02-12.85-15.72-1.59,5.73-1.59,5.73c0,0,16.31,28.2,23.59,31.48,7.28,3.28-9.15-21.49-9.15-21.49Z"/>
    </g>
    <path class="cls-1" d="M147.23,450.13c-2.8,6.53-5.08,17.37-.78,32.71.48,1.7,1.41,3.28,2.79,4.38,2.06,1.65,5.59,2.85,11.1.1s8.96-.84,11.14,1.45,2.93,5.78,1.73,8.81c-1.48,3.76-5.12,8.14-14.08,5.53-14.59-4.24-15.08-.39-15.08-.39,0,0-5.88,8.86,0,15.03,5.88,6.17,20.91,8.48,20.91,8.48,0,0,38.92-.39,35.84-31.22-2.71-27.12-24.45-27.1-29.65-26.71-1.07.08-2.16-.24-2.89-1.03s-1.07-1.9.36-3.43c.72-.77,1.75-1.19,2.8-1.16,5.33.11,24.33-.25,25.98-10.84,1.93-12.33-19.66-14.39-19.66-14.39,0,0-8.82-1.37-17.53,1.14-5.81,1.68-10.61,5.96-12.99,11.52Z"/>
    <path class="cls-1" d="M213.11,459.89c-2.8,6.53-5.08,17.37-.78,32.71.48,1.7,1.41,3.28,2.79,4.38,2.06,1.65,5.59,2.85,11.1.1s8.96-.84,11.14,1.45,2.93,5.78,1.73,8.81c-1.48,3.76-5.12,8.14-14.08,5.53-14.59-4.24-15.08-.39-15.08-.39,0,0-5.88,8.86,0,15.03,5.88,6.17,20.91,8.48,20.91,8.48,0,0,38.92-.39,35.84-31.22-2.71-27.12-24.45-27.1-29.65-26.71-1.07.08-2.16-.24-2.89-1.03s-1.07-1.9.36-3.43c.72-.77,1.75-1.19,2.8-1.16,5.33.11,24.33-.25,25.98-10.84,1.93-12.33-19.66-14.39-19.66-14.39,0,0-8.82-1.37-17.53,1.14-5.81,1.68-10.61,5.96-12.99,11.52Z"/>
    <path class="cls-1" d="M311.3,437.62s-17.59.44-17.15,14.51c.29,9.17,10.09,11.99,16.89,12.84,2.87.36,5.78.21,8.61-.39,3.31-.7,8.51.21,1.77,16.58-9.24,22.43,3.28,42.66,3.28,42.66,0,0,8.59,15.83,17.39-14.07,7.25-24.67,16-53.82,18.85-63.28.95-3.16-.54-6.61-3.57-7.91-5.61-2.41-18.15-4.2-46.07-.94Z"/>
    <path class="cls-1" d="M720.98,440.15s-17.59.44-17.15,14.51c.29,9.17,10.09,11.99,16.89,12.84,2.87.36,5.78.21,8.61-.39,3.31-.7,8.51.21,1.77,16.58-9.24,22.43,3.28,42.66,3.28,42.66,0,0,8.59,15.83,17.39-14.07,7.25-24.67,16-53.82,18.85-63.28.95-3.16-.54-6.61-3.57-7.91-5.61-2.41-18.15-4.2-46.07-.94Z"/>
    <path class="cls-1" d="M798.3,436.86s-17.59.44-17.15,14.51c.29,9.17,10.09,11.99,16.89,12.84,2.87.36,5.78.21,8.61-.39,3.31-.7,8.51.21,1.77,16.58-9.24,22.43,3.28,42.66,3.28,42.66,0,0,8.59,15.83,17.39-14.07,7.25-24.67,16-53.82,18.85-63.28.95-3.16-.54-6.61-3.57-7.91-5.61-2.41-18.15-4.2-46.07-.94Z"/>
    <path class="cls-1" d="M438.09,499.86s-1.52-8.53-9.75-9.55c0,0,5.55-44.23-15.31-46.5,0,0-19.91,1.42-34.95,30.28,0,0-18.12,24.96-12.43,37.15,0,0,3.45,10.36,24.59,6.71,0,0,13.61-.91,11.07,10.46-2.54,11.38,16.05,10.46,16.05,10.46,0,0,15.95-1.42,10.46-18.69,0,0-.1-4.88,6.3-4.57,6.4.3,3.96-15.75,3.96-15.75ZM401.54,494.98c-.31.3-5.48,1.32-7.62-1.22-1.74-2.07,4.39-12.6,6.74-16.46.31-.5,1.07-.34,1.14.25.61,5.6.02,17.16-.26,17.44Z"/>
    <path class="cls-1" d="M460.56,439.99s-12.48,3.08-16.62,12.56c-3.25,7.44,1.32,16.23,9.43,16.69,2.85.16,5.98-.77,8.95-3.95.49-.53,1.09-.94,1.77-1.15,4.06-1.25,17.91-4.37,12.4,13.23l-21.18,36.7c-.34.59-.72,1.15-1.12,1.7-2.04,2.76-8.41,12.62,2.09,15.51,12.25,3.37,37.67-1.84,37.67-1.84,0,0,23.89-3.68,21.44-21.13,0,0-2.26-11.88-20.92-5.88-.59.19-1.07-.51-.66-.98,4.39-5.01,15.4-20.1,9.94-40.31-6.74-24.96-28.02-24.04-43.19-21.13Z"/>
    <path class="cls-1" d="M543.68,439.82s-14.16,5.53-10.88,20.79c3.28,15.26,21.86,3.43,21.86,3.43,0,0,7.85-2.45,7.42,3.76s-5.47,5.13-5.47,5.13c0,0-17.58.28-15.54,12.72,0,0,1.84,8.18,16.35,12.08,0,0,7.61,1.26,1.89,8.52-4.36,5.54-14.74-.81-19.42-4.14-2.29-1.63-5.16-2.33-7.91-1.72-2.49.56-5.3,2-7.29,5.4-4.4,7.52,7.39,20.07,7.39,20.07,0,0,14.14,13.41,45.27.42,1.53-.64,2.91-1.59,4.09-2.75,4.73-4.66,15.34-17.35,6.57-30.37,0,0-5.17-5.35-9.69-6.43-.45-.11-.56-.68-.16-.9,4.89-2.77,20.45-13.63,7.04-33.89-15.72-23.77-41.54-12.12-41.54-12.12Z"/>
    <path class="cls-1" d="M644.62,447.45c-1.36,2.36-2,5.7.73,9.75,1.21,1.79,3.12,3.03,5.25,3.33,4.23.6,11.92,3.92,9.34,21.11-2.61,17.37-5.01,18.84-5.01,18.84,0,0-15.31.29-11.48,14.72,3.09,11.64,17.87,10.63,23.46,9.81,1.49-.22,2.98-.2,4.47.02,7.33,1.09,29.68,2.96,32.13-14.24,0,0-.96-11.56-12.22-10.89,0,0-5.13.9-3.1-42.33.04-.96.1-1.93.25-2.87.79-4.91,2.18-22.32-18.86-18.39l-19.17,6.59c-2.39.82-4.53,2.37-5.8,4.57Z"/>
  </g>
  <g>
    <path class="cls-3" d="M419.46,277.5c76.16-73.09,265.03-211.83,502.51-80.7"/>
    <path class="cls-2" d="M423.84,273.35c-.63-22.16-18.04-48.87-33.25-64.08,6.24,35.45,5.37,73.04-7.57,107.3,33.03-15.28,70.77-16.35,106.69-13.68-18.01-14.47-42.19-29.57-65.88-29.54Z"/>
  </g>
  <g>
    <path class="cls-3" d="M1541.53,359.45s531.48,106.71,660.01-133.46"/>
    <path class="cls-2" d="M2198.51,231.29c-20.41,8.64-51.95,3.92-72.11-3.58,34.83-9.07,68.65-25.5,94.43-51.51-.16,36.39,14.57,71.16,31.94,102.72-20.65-10.36-44.44-26.07-54.26-47.62Z"/>
  </g>
</svg>