<?xml version="1.0" encoding="UTF-8"?>
<svg id="Capa_33" data-name="Capa 33" xmlns="http://www.w3.org/2000/svg" viewBox="0 0 308.17 156.24">
  <defs>
    <style>
      .cls-1 {
        fill: #ffcf64;
      }
    </style>
  </defs>
  <path class="cls-1" d="M243.38,94.71s-.69-.68-2.07-1.5c-5.17-3.06-11.64-2.94-16.81.12-3.69,2.18-7.41,6.08-8.56,13.02-.28,1.69-.75,3.35-1.38,4.94-2.06,5.19-5.69,16.97,1.43,21.74,3.32,2.22,6.45,3.28,9.09,3.72,3.97.66,8.05-.25,11.44-2.42,4.07-2.61,10.52-7.6,12.93-14.26,3.63-10.04-.88-21.55-6.08-25.36ZM229.41,124.24c-1.28.28-2.57-.27-3.22-1.41-.96-1.66-1.74-4.99.47-11.27,2.05-5.81,4.5-7.81,6.27-8.44,1.51-.54,3.16.03,4.08,1.34,1.07,1.53,1.94,4.5.14,9.98-2.42,7.39-5.7,9.34-7.74,9.8Z"/>
  <path class="cls-1" d="M40.64,26.48c1.21-15.69-8.56-23.89-21.12-22.15-1.34.19-2.51,1-3.2,2.15C12.4,13.01-.44,35.75,6.28,43.45c.75.86,1.83,1.4,2.97,1.48,1.93.14,5.06-.56,7.42-5.54.89-1.88,2.94-2.93,4.98-2.53,6.19,1.18,18.05,1.82,18.99-10.37ZM27.3,26.03s-3.82-.51-4.7-1.89c-.75-1.17,3.03-5.2,4.23-6.44.33-.34.88-.44,1.27-.16.49.35,1.05,1.2,1.34,3.17.58,3.94-2.14,5.32-2.14,5.32Z"/>
  <path class="cls-1" d="M106.39,21.71s-.69-.68-2.07-1.5c-5.17-3.06-11.64-2.94-16.81.12-3.69,2.18-7.41,6.08-8.56,13.02-.28,1.69-.75,3.35-1.38,4.94-2.06,5.19-5.69,16.97,1.43,21.74,3.32,2.22,6.45,3.28,9.09,3.72,3.97.66,8.05-.25,11.44-2.42,4.07-2.61,10.52-7.6,12.93-14.26,3.63-10.04-.88-21.55-6.08-25.36ZM92.42,51.23c-1.28.28-2.57-.27-3.22-1.41-.96-1.66-1.74-4.99.47-11.27,2.05-5.81,4.5-7.81,6.27-8.44,1.51-.54,3.16.03,4.08,1.34,1.07,1.53,1.94,4.5.14,9.98-2.42,7.39-5.7,9.34-7.74,9.8Z"/>
  <path class="cls-1" d="M67.16,74.83c.33-2.02,1.11-7.09,1.47-11.25.12-1.43.41-2.84.86-4.21,1.29-3.98,3.78-12.69,2.41-17.29-1.81-6.09-23.12-14.95-28.74-11.57,0,0-5.26,1.43-8.35,17.23-.25,1.29-.67,2.53-1.27,3.7-2.32,4.49-7.8,17.12.53,22.83,0,0,6.82,4.84,11.52-9.26.24-.71,1.07-1.03,1.72-.65,1.55.91,4.19,3.66,6.87,11.94.61,1.89,1.78,3.59,3.44,4.69,2.39,1.58,5.9,2.13,8.97-4.3.28-.59.48-1.22.59-1.87ZM50.31,51.03c-.65-.18-1.16-.7-1.28-1.37-.41-2.34.55-4.32,1.38-5.52.52-.76,1.46-1.12,2.35-.88,7.22,1.95,6.37,3.32,5.68,6.81-.64,3.25-5.74,1.64-8.13.96Z"/>
  <path class="cls-1" d="M214.89,70.05c-.12-.07-.24-.15-.36-.23-1.15-.8-8.2-5.34-11.67.84-2.44,4.34.46,6.86,2.83,8.1s3.5,3.87,2.73,6.39c-.69,2.24-2.08,5.39-4.7,9.8s-3.82,7.77-4.2,10.2c-.62,4.05,3.24,7.24,7.12,5.93,2.86-.96,6.28-3.47,8.59-9.6,4.66-12.37,8.02-12.18,8.02-12.18,0,0,6.57-.3,8.4-2.03,1.04-.98,1.06-2.74.24-4.56-.7-1.55-1.81-2.88-3.19-3.87-2.58-1.84-7.62-5.29-13.8-8.81Z"/>
  <path class="cls-1" d="M123.5,69.8c-.13.18-.41.05-.37-.16.64-3.46,2.36-15.34-3.38-18.68-3.37-1.96-5.62-1.33-7.03-.21-1.25,1-1.95,2.53-2.06,4.12-.36,5.15-1.66,22.94-2.54,25.12-1.03,2.56-2.84,12.57,1.29,13.96s8.52-3.94,11.22-6.8,11.17-9.38,11.17-9.38c0,0,10.95-11.16,10.01-14.54,0,0-.5-5.61-6.56-3.79-4.98,1.49-10.09,8.06-11.74,10.35Z"/>
  <path class="cls-1" d="M147.65,48.18c-1.73,2.85-4.25,8.41-4.49,16.79-.02.62-.12,1.23-.32,1.81-1.07,3.09-4.23,14.03,2.9,18.79,8.35,5.57,18.71,4.07,18.71,4.07,0,0,5.21-.42,6.03-4.81s-4.16-5.61-4.16-5.61c0,0-11.65-2.63-11.13-4.95s6.1-.79,6.4-.79,6.87.82,8.87-5.16c0,0,1.97-6.05-7.33-6.85,0,0-6.96-1.92-5.61-3.2s7.05-.06,7.05-.06c0,0,10.68,5.13,11.62.02s-1.43-7.3-1.43-7.3c0,0-10.87-7.45-19.61-7.01,0,0-.72-.05-1.82.18-2.38.49-4.42,2.02-5.68,4.1Z"/>
  <path class="cls-1" d="M169.29,117.34c.15.03.29.05.44.07,2.1.22,18.02,1.48,24.98-10.25,6.59-11.11,5.12-19.85,4.69-21.74-.06-.27-.15-.51-.26-.76-1.03-2.2-7.1-13.14-23.97-9.34,0,0-6.27,2.67,6.75,8.44,2.55,1.13,4.42,3.43,4.97,6.17.61,3.01.52,6.92-2.46,10.22-3.91,4.33-8.21,4.69-10.57,4.47-1.03-.1-1.96-.62-2.62-1.42-1.59-1.92-5.3-5.64-9.68-4.58-5.84,1.4-4.26,8.99-4.26,8.99,0,0,1.26,7.45,11.99,9.74Z"/>
  <path class="cls-1" d="M258.69,98.04s-11.83,4.55-5.3,18.42c0,0,3.22,5.35,8.2,6.64,3.65.94,4.96,3.88,5.4,5.38.21.73-.29,1.48-1.05,1.53-.92.07-2.47-.25-5.04-1.7s-5.13-1.49-7.27-1.18c-3.13.46-5.77,2.64-6.55,5.7-.64,2.54-.24,5.62,4.07,7.61,6.88,3.17,13.19,3.93,15.31,4.11.5.04.99.01,1.49-.09,2.66-.55,11.84-2.82,14.38-8.62,0,0,5.93-10.35.7-13.9s-13.83-9.61-13.83-9.61c0,0-3.68-2.87-1.79-4.56s6.69,1.26,6.69,1.26c0,0,6.81,3.62,9.54.16s-.71-8.83-.71-8.83c0,0-4.66-6.22-12.62-5.68-7.96.54-11.63,3.38-11.63,3.38Z"/>
</svg>