<?xml version="1.0" encoding="UTF-8"?>
<svg id="Capa_33" data-name="Capa 33" xmlns="http://www.w3.org/2000/svg" viewBox="0 0 557.88 165.45">
  <defs>
    <style>
      .cls-1 {
        fill: #f7edaf;
      }
    </style>
  </defs>
  <path class="cls-1" d="M449.01,55.72s-1.57-.68-4.39-1.15c-10.53-1.74-21.15,2.62-27.74,11.02-4.69,5.98-8.34,14.82-5.78,27.05.63,2.98.92,6.02.9,9.07-.06,9.91,1.51,31.73,16.35,35.04,6.92,1.54,12.78,1.28,17.44.31,7-1.46,13.16-5.6,17.37-11.37,5.06-6.93,12.52-19.34,12.22-31.91-.45-18.95-15.32-35.09-26.37-38.05ZM444.91,113.55c-1.93,1.29-4.42,1.2-6.24-.25-2.66-2.12-6.09-7.14-6.47-18.95-.35-10.93,2.43-15.82,4.94-18,2.15-1.87,5.24-1.99,7.61-.4,2.76,1.84,6.1,6.19,6.66,16.42.75,13.78-3.42,19.12-6.5,21.18Z"/>
  <path class="cls-1" d="M69.73,73.28c-8.1-26.73-29.54-34.01-49.19-23.06-2.09,1.17-3.51,3.26-3.92,5.62-2.29,13.32-8.9,59.2,7.19,67.62,1.8.94,3.93,1.13,5.87.53,3.28-1.02,8.01-4.18,8.7-13.93.26-3.69,2.97-6.73,6.61-7.4,10.99-2.02,31.03-8.6,24.74-29.38ZM47.36,81.11s-6.64,1.62-9-.11c-1.98-1.45,1.66-10.55,2.86-13.38.33-.78,1.17-1.29,2-1.08,1.04.27,2.51,1.3,4.26,4.38,3.49,6.15-.12,10.18-.12,10.18Z"/>
  <path class="cls-1" d="M175.41,23.08s-1.57-.68-4.39-1.15c-10.53-1.74-21.15,2.62-27.74,11.02-4.69,5.98-8.34,14.82-5.78,27.05.63,2.98.92,6.02.9,9.07-.06,9.91,1.51,31.73,16.35,35.04,6.92,1.54,12.78,1.28,17.44.31,7-1.46,13.16-5.6,17.37-11.37,5.06-6.93,12.52-19.34,12.22-31.91-.45-18.95-15.32-35.09-26.37-38.05ZM171.32,80.91c-1.93,1.29-4.42,1.2-6.24-.25-2.66-2.12-6.09-7.14-6.47-18.95-.35-10.93,2.43-15.82,4.94-18,2.15-1.87,5.24-1.99,7.61-.4,2.76,1.84,6.1,6.19,6.66,16.42.75,13.78-3.42,19.12-6.5,21.18Z"/>
  <path class="cls-1" d="M144.71,136.21c-.76-3.54-2.72-12.45-4.81-19.56-.72-2.45-1.15-4.97-1.29-7.52-.42-7.41-1.91-23.42-7.14-30.15-6.91-8.91-47.87-9.85-55-.65,0,0-7.78,5.74-2.74,33.88.41,2.29.52,4.62.27,6.94-.95,8.93-1.89,33.35,15.57,37.43,0,0,14.39,3.62,13.1-22.72-.07-1.33,1.11-2.39,2.43-2.18,3.14.51,9.29,3.35,19.05,15.34,2.23,2.74,5.26,4.79,8.71,5.54,4.98,1.07,11.13-.27,12.07-12.88.09-1.16.01-2.33-.23-3.47ZM101.52,107.66c-1.19.11-2.37-.42-2.99-1.44-2.19-3.61-1.87-7.51-1.28-10.02.38-1.6,1.69-2.8,3.33-2.98,13.2-1.42,12.67,1.39,13.78,7.61,1.03,5.78-8.44,6.4-12.84,6.82Z"/>
  <path class="cls-1" d="M386.02,33.25c-.25-.04-.49-.09-.74-.14-2.42-.58-17-3.56-18.77,8.91-1.25,8.75,5.17,11.05,9.89,11.58,4.63.52,8.28,4.16,8.62,8.81.3,4.15.02,10.25-1.47,19.24-1.51,9.1-1.32,15.32-.38,19.58,1.57,7.1,10.02,9.9,15.6,5.23,4.11-3.43,8.15-9.77,8.03-21.41-.26-23.46,5.43-25.31,5.43-25.31,0,0,10.68-4.72,12.6-8.76,1.08-2.28-.01-5.22-2.55-7.7-2.16-2.11-4.84-3.6-7.77-4.34-5.45-1.38-16.01-3.85-28.5-5.69Z"/>
  <path class="cls-1" d="M234.67,91.64c-.1.38-.64.35-.71-.03-1.17-6.14-5.97-26.9-17.61-28.72-6.84-1.07-10.15,1.42-11.76,4.17-1.43,2.45-1.6,5.43-.76,8.14,2.72,8.76,12.01,39.02,11.96,43.2-.06,4.89,3.39,22.62,11.11,22.26,7.72-.36,11.56-12,14.18-18.47,2.62-6.47,12.45-22.7,12.45-22.7,0,0,10.94-25.51,7.2-30.49,0,0-4.43-8.96-13.29-2.05-7.28,5.68-11.5,19.83-12.77,24.68Z"/>
  <path class="cls-1" d="M260.71,40.34c-1.02,5.83-1.63,16.66,3.37,30.66.37,1.03.59,2.11.63,3.2.21,5.81,2.03,25.94,16.89,29.21,17.4,3.83,33.58-5.3,33.58-5.3,0,0,8.34-4.05,6.88-11.84-1.46-7.79-10.48-6.6-10.48-6.6,0,0-20.96,3.15-21.6-1.03-.63-4.19,9.59-5.23,10.07-5.42s11.89-3.07,11.35-14.25c0,0-.64-11.28-16.54-6.61,0,0-12.75,1.31-11.35-1.69s11.62-4.62,11.62-4.62c0,0,20.97,1.61,19.23-7.45-1.74-9.06-7.06-11.16-7.06-11.16,0,0-22.78-5.32-36.94,1.02,0,0-1.23.38-2.9,1.46-3.63,2.34-6.01,6.18-6.75,10.43Z"/>
  <path class="cls-1" d="M341.01,140.82c.26-.04.52-.1.77-.17,3.62-.99,30.77-9.14,34.73-33.03,3.75-22.61-4.3-36.13-6.23-38.99-.27-.4-.57-.75-.92-1.08-3.12-2.97-20.2-17.17-45.66-.03,0,0-8.65,8.45,16.59,9.61,4.95.23,9.51,2.83,12.19,7,2.95,4.58,5.32,11.11,2.51,18.5-3.69,9.69-10.57,13.04-14.61,14.19-1.77.5-3.65.23-5.25-.67-3.86-2.16-12.4-5.91-18.97-1.35-8.76,6.08-1.26,17.62-1.26,17.62,0,0,6.88,11.51,26.11,8.4Z"/>
  <path class="cls-1" d="M476.49,51.38s-16.65,15.13,3.08,33.89c0,0,8.77,6.79,17.84,5.71,6.64-.79,10.7,3.22,12.4,5.43.82,1.07.47,2.63-.75,3.21-1.47.7-4.24,1.17-9.43.42-5.01-.72-9.45.83-12.78,2.72-4.88,2.77-7.85,8.07-7.16,13.64.57,4.62,3.21,9.46,11.63,9.97,13.42.82,24.35-1.98,27.98-3.06.85-.25,1.65-.62,2.4-1.1,4.06-2.62,17.78-12.28,18.25-23.52,0,0,3.15-20.93-7.79-23.45-10.94-2.52-29.06-7-29.06-7,0,0-7.93-2.38-5.9-6.39s11.88-2.22,11.88-2.22c0,0,13.6,1.6,15.88-5.87,2.28-7.48-6.85-14.16-6.85-14.16,0,0-11.72-7.3-24.53-1.28-12.81,6.01-17.07,13.07-17.07,13.07Z"/>
</svg>