<?xml version="1.0" encoding="UTF-8"?>
<svg id="Capa_33" data-name="Capa 33" xmlns="http://www.w3.org/2000/svg" viewBox="0 0 557.88 127.91">
  <defs>
    <style>
      .cls-1 {
        fill: #f7edaf;
      }
    </style>
  </defs>
  <path class="cls-1" d="M300.85,73.31c-1.25-3.14-4.43-11.01-7.46-17.21-1.04-2.14-1.83-4.38-2.36-6.7-1.54-6.74-5.4-21.21-11.24-26.58-7.73-7.11-45.5-1.6-50.61,7.96,0,0-6.25,6.49,2.76,31.54.73,2.04,1.2,4.17,1.33,6.33.52,8.35,3.45,30.92,20.12,31.95,0,0,13.78,1.08,8.49-22.9-.27-1.21.65-2.37,1.89-2.38,2.96-.02,9.05,1.63,19.88,11.12,2.47,2.17,5.58,3.59,8.87,3.73,4.74.21,10.18-1.98,9.08-13.7-.1-1.08-.35-2.14-.75-3.15ZM256.75,53.82c-1.07.29-2.25-.01-2.97-.86-2.57-2.98-2.88-6.6-2.73-9,.1-1.52,1.12-2.84,2.59-3.25,11.9-3.36,11.85-.7,13.84,4.85,1.85,5.15-6.76,7.19-10.73,8.26Z"/>
  <path class="cls-1" d="M136.29,23.95s-1.35-.97-3.92-2c-9.61-3.83-20.58-1.89-28.56,4.7-5.68,4.7-10.97,12.32-11.07,24.43-.02,2.95-.37,5.89-1.02,8.77-2.11,9.37-5.13,30.37,8.24,36.57,6.24,2.89,11.84,3.86,16.45,3.9,6.93.07,13.62-2.58,18.81-7.18,6.23-5.52,15.86-15.73,18.17-27.7,3.49-18.05-7.25-36.4-17.11-41.5ZM120.44,77.89c-2.1.83-4.44.22-5.86-1.53-2.08-2.56-4.3-8.02-2.21-19.29,1.93-10.43,5.57-14.48,8.4-16.03,2.43-1.33,5.37-.8,7.29,1.2,2.24,2.32,4.5,7.12,2.91,16.93-2.14,13.2-7.19,17.41-10.54,18.72Z"/>
  <path class="cls-1" d="M511.71,14.8s-10.45.55-3.12,24.38c.24.78.44,1.58.56,2.38,1.01,6.37,6.17,36.82,13.27,41.41,7.94,5.14,11.73-1.84,11.73-1.84,0,0,4.42-2.95-3.45-36.27-7.87-33.32-19-30.07-19-30.07Z"/>
  <path class="cls-1" d="M314.97,27.42c-2.18,5.31-4.99,15.44-3.15,29.75.14,1.05.12,2.12-.07,3.16-1,5.55-3.44,24.99,9.96,31.17,15.69,7.23,32.9,1.92,32.9,1.92,0,0,8.74-2.11,8.96-9.79.23-7.68-8.56-8.42-8.56-8.42,0,0-20.51-1.35-20.24-5.45s10.16-2.97,10.66-3.05,11.9-.44,13.69-11.15c0,0,1.72-10.82-14.3-9.68,0,0-12.35-1.4-10.4-3.95,1.94-2.55,11.96-1.98,11.96-1.98,0,0,19.53,5.86,19.76-3.08.23-8.94-4.38-12.03-4.38-12.03,0,0-20.47-9.75-35.21-6.68,0,0-1.24.11-3.05.78-3.92,1.47-6.97,4.61-8.56,8.48Z"/>
  <path class="cls-1" d="M32.97,37.26s-18.91,10.89-4.09,32.74c0,0,6.91,8.24,15.72,9.1,6.45.62,9.47,5.26,10.62,7.71.56,1.18-.1,2.59-1.37,2.89-1.54.36-4.26.23-9.02-1.55-4.6-1.72-9.12-1.17-12.67-.07-5.2,1.62-9.11,6.02-9.61,11.44-.42,4.49,1.09,9.62,8.95,11.85,12.54,3.56,23.48,3.16,27.14,2.89.86-.06,1.69-.25,2.5-.55,4.38-1.64,19.38-7.95,22.15-18.51,0,0,7.32-19.17-2.53-23.83-9.84-4.65-26.08-12.65-26.08-12.65,0,0-7.02-3.89-4.26-7.27,2.75-3.38,11.71.36,11.71.36,0,0,12.55,4.33,16.25-2.28s-3.56-14.83-3.56-14.83c0,0-9.59-9.33-22.97-6.29-13.38,3.04-18.88,8.85-18.88,8.85Z"/>
  <path class="cls-1" d="M213.88,65.58s-3.33-3.98,1.05-6.25c0,0,6.2-2.1,5.51-13.71-.32-5.36-1.74-9.74-3.17-12.89-1.61-3.55-4.95-5.99-8.82-6.54-8-1.13-23.35-2.87-36.21-1.78-.65.06-1.28.21-1.88.46-.05.02-.09.04-.14.06-5.49,2.31-9.2,7.54-9.69,13.47-.41,4.91-.49,12.39,1.28,20.74.31,1.45.37,2.93.25,4.4-.31,3.79-.99,11.32-1.9,18.14-.39,2.87-.45,5.76-.15,8.63.62,5.89,2.47,14.63,7.98,15.83,8.4,1.83,15.3-.15,15.3-.15,0,0,39.13-12.01,42.47-25.16,3.34-13.15-11.86-15.26-11.86-15.26ZM182.04,47c.03-1.09.81-2.03,1.88-2.27,6.1-1.34,8.87.8,8.87.8,0,0,6.15,2.58,3.87,6.32-1.66,2.71-7.69,3.09-10.88,3.09-1.27,0-2.37-.83-2.78-2.03-.84-2.49-.99-4.55-.95-5.92ZM202.53,79.56c-1.83,2.69-4.57,3.57-6.2,3.86-.86.15-1.67.5-2.38,1.01-1.47,1.04-3.33,1.72-4.84,2.14-1.83.51-3.73-.42-4.44-2.18-1.15-2.85-.87-5.84-.54-7.59.22-1.15.85-2.2,1.82-2.86,3.06-2.08,6.89-.41,8.96.83,1.06.63,2.25.98,3.48,1.08,2.43.19,6.03.93,4.14,3.71Z"/>
  <path class="cls-1" d="M412.01,25.91s-8.46,56.58,9.53,60.6c17.98,4.02,14.59-14.62,14.59-14.62l-2.76-17.55s5.52,23.51,15.2,27.01c9.68,3.5,18.28-20.22,18.28-20.22,0,0-3.44,27.48,8.42,27.44,11.87-.04,13.28-8.48,13.28-8.48l-.18-53.39s-1.35-14.4-8.97-16.4c-6.02-1.58-13.64,4.79-16.57,7.53-.82.77-1.52,1.66-2.09,2.63-2.35,4.05-8.85,16.1-10.18,27.85-.06.56-.85.63-.98.08-1.62-6.61-5.79-21.69-11.75-29.5-7.77-10.19-15.13-7.67-15.13-7.67,0,0-9.41,2.9-10.7,14.7Z"/>
</svg>