<?xml version="1.0" encoding="UTF-8"?>
<svg id="papel" xmlns="http://www.w3.org/2000/svg" viewBox="0 0 1537.93 280.34">
  <defs>
    <style>
      .cls-1 {
        fill: #fff;
      }

      .cls-2 {
        fill: #18448e;
      }
    </style>
  </defs>
  <rect class="cls-2" x="50.57" y="16.96" width="1440" height="221.83"/>
  <polygon class="cls-1" points="1488.18 262.12 1468.71 261.75 1432.81 281.32 1396.92 281.87 1361.03 262.47 1325.14 275.15 1289.24 269.02 1253.35 268.79 1217.46 283.29 1181.57 269.46 1145.67 276.18 1109.78 264.85 1073.89 261.27 1037.99 276.93 1002.1 268.13 966.21 268.98 930.31 273.8 894.42 254.36 858.53 276.99 822.64 278.46 786.75 262.87 750.85 282.72 714.96 277.25 679.07 280.09 643.18 282.31 607.29 275.95 571.39 278.66 535.5 269.39 499.6 284.15 463.71 256.37 427.82 265.28 391.92 255.28 356.02 283.84 320.13 275.77 284.23 258.76 248.34 255.11 212.44 272.37 176.54 279.97 140.64 261.52 104.75 269.27 68.84 271.87 44.11 264.65 46.54 248.59 29.34 227.13 10.01 205.66 28.09 181.84 68.83 169.69 104.72 183.66 140.61 190.79 176.51 193.71 212.4 182.79 248.29 174.21 284.18 176.34 320.08 181.51 355.97 179.16 391.86 189.04 427.75 177.65 463.65 199.77 499.54 191.6 535.44 177.02 571.33 169.28 607.22 171.42 643.12 199.91 679 187.5 714.9 174.37 750.79 184.62 786.68 177.9 822.57 178.86 858.46 189.79 894.35 174.7 930.25 189.37 966.14 187.86 1002.04 181.51 1037.93 195.8 1073.83 191.58 1109.72 190 1145.62 180.79 1181.51 193.2 1217.41 170.64 1253.3 199.97 1289.2 179.52 1325.09 197.24 1360.99 172.49 1396.89 195.71 1432.79 171.87 1468.69 197.83 1498.25 187.26 1487.26 205.66 1477.3 227.12 1516.63 250.22 1488.18 262.12"/>
  <polygon class="cls-2" points="1498.9 231.08 1479.43 230.53 1443.54 259.84 1407.65 260.67 1371.75 231.61 1335.86 250.61 1299.97 241.42 1264.08 241.07 1228.18 262.79 1192.29 242.08 1156.4 252.15 1120.5 235.18 1084.61 229.81 1048.72 253.27 1012.82 240.09 976.93 241.37 941.04 248.58 905.14 219.46 869.25 253.36 833.36 255.56 797.47 232.21 761.58 261.95 725.69 253.75 689.8 258 653.91 261.34 618.01 251.81 582.12 255.86 546.22 241.98 510.33 264.09 474.43 222.47 438.54 235.82 402.64 220.84 366.75 263.62 330.85 251.54 294.96 226.06 259.06 220.58 223.17 246.45 187.27 257.83 151.37 230.19 115.47 241.8 79.57 245.69 54.83 234.88 57.26 210.82 40.06 178.66 20.73 146.51 38.81 110.83 79.55 92.63 115.44 113.55 151.34 124.23 187.23 128.61 223.12 112.25 259.01 99.39 294.91 102.59 330.8 110.33 366.69 106.82 402.58 121.61 438.48 104.55 474.37 137.69 510.27 125.45 546.16 103.61 582.05 92.01 617.95 95.21 653.84 137.89 689.73 119.31 725.62 99.64 761.51 114.99 797.4 104.93 833.29 106.37 869.19 122.74 905.08 100.13 940.97 122.11 976.87 119.85 1012.76 110.33 1048.65 131.73 1084.55 125.42 1120.44 123.05 1156.34 109.26 1192.24 127.85 1228.13 94.05 1264.03 137.98 1299.92 107.35 1335.82 133.9 1371.72 96.82 1407.61 131.6 1443.51 95.89 1479.42 134.78 1508.97 118.95 1497.98 146.5 1488.02 178.66 1527.35 213.26 1498.9 231.08"/>
</svg>