<?xml version="1.0" encoding="UTF-8"?>
<svg id="postal_yt" data-name="postal yt" xmlns="http://www.w3.org/2000/svg" viewBox="0 0 309.45 297.19">
  <defs>
    <style>
      .cls-1 {
        fill: #1a4895;
      }

      .cls-1, .cls-2, .cls-3 {
        opacity: .3;
      }

      .cls-4 {
        fill: #cfe7cd;
      }

      .cls-5 {
        fill: #fff;
      }

      .cls-6, .cls-3 {
        fill: #606060;
      }

      .cls-7 {
        fill: #ee3a23;
      }

      .cls-8 {
        fill: #f8edaf;
      }
    </style>
  </defs>
  <path class="cls-3" d="M296.45,250.45c-14.08,0-25.5-11.42-25.5-25.5v-2.21c0-14.08,11.42-25.5,25.5-25.5.03,0,.06,0,.08,0v-15.17s-.06,0-.08,0c-14.08,0-25.5-11.42-25.5-25.5v-2.21c0-14.08,11.42-25.5,25.5-25.5.03,0,.06,0,.08,0v-15.17s-.06,0-.08,0c-14.08,0-25.5-11.42-25.5-25.5v-2.21c0-14.08,11.42-25.5,25.5-25.5.03,0,.06,0,.08,0v-15.17s-.06,0-.08,0c-7.3,0-13.88-3.06-18.52-7.98-4.91-4.65-7.98-11.23-7.98-18.52,0-.03,0-.06,0-.08h-15.17s0,.06,0,.08c0,14.08-11.42,25.5-25.5,25.5h-2.21c-14.08,0-25.5-11.42-25.5-25.5,0-.03,0-.06,0-.08h-15.17s0,.06,0,.08c0,14.08-11.42,25.5-25.5,25.5h-2.21c-14.08,0-25.5-11.42-25.5-25.5,0-.03,0-.06,0-.08h-15.17s0,.06,0,.08c0,14.08-11.42,25.5-25.5,25.5h-2.21c-14.08,0-25.5-11.42-25.5-25.5,0-.03,0-.06,0-.08h-15.17s0,.06,0,.08c0,7.3-3.06,13.88-7.98,18.52-4.65,4.91-11.23,7.98-18.52,7.98-.03,0-.06,0-.08,0v15.17s.06,0,.08,0c14.08,0,25.5,11.42,25.5,25.5v2.21c0,14.08-11.42,25.5-25.5,25.5-.03,0-.06,0-.08,0v15.17s.06,0,.08,0c14.08,0,25.5,11.42,25.5,25.5v2.21c0,14.08-11.42,25.5-25.5,25.5-.03,0-.06,0-.08,0v15.17s.06,0,.08,0c14.08,0,25.5,11.42,25.5,25.5v2.21c0,14.08-11.42,25.5-25.5,25.5-.03,0-.06,0-.08,0v15.17s.06,0,.08,0c7.3,0,13.88,3.06,18.52,7.98,4.91,4.65,7.98,11.23,7.98,18.52,0,.03,0,.06,0,.08h15.17s0-.06,0-.08c0-14.08,11.42-25.5,25.5-25.5h2.21c14.08,0,25.5,11.42,25.5,25.5,0,.03,0,.06,0,.08h15.17s0-.06,0-.08c0-14.08,11.42-25.5,25.5-25.5h2.21c14.08,0,25.5,11.42,25.5,25.5,0,.03,0,.06,0,.08h15.17s0-.06,0-.08c0-14.08,11.42-25.5,25.5-25.5h2.21c14.08,0,25.5,11.42,25.5,25.5,0,.03,0,.06,0,.08h15.17s0-.06,0-.08c0-7.3,3.06-13.88,7.98-18.52,4.65-4.91,11.23-7.98,18.52-7.98.03,0,.06,0,.08,0v-15.17s-.06,0-.08,0Z"/>
  <path class="cls-8" d="M286.27,247.48c-14.08,0-25.5-11.42-25.5-25.5v-2.21c0-14.08,11.42-25.5,25.5-25.5.03,0,.06,0,.08,0v-15.17s-.06,0-.08,0c-14.08,0-25.5-11.42-25.5-25.5v-2.21c0-14.08,11.42-25.5,25.5-25.5.03,0,.06,0,.08,0v-15.17s-.06,0-.08,0c-14.08,0-25.5-11.42-25.5-25.5v-2.21c0-14.08,11.42-25.5,25.5-25.5.03,0,.06,0,.08,0v-15.17s-.06,0-.08,0c-7.3,0-13.88-3.06-18.52-7.98-4.91-4.65-7.98-11.23-7.98-18.52,0-.03,0-.06,0-.08h-15.17s0,.06,0,.08c0,14.08-11.42,25.5-25.5,25.5h-2.21c-14.08,0-25.5-11.42-25.5-25.5,0-.03,0-.06,0-.08h-15.17s0,.06,0,.08c0,14.08-11.42,25.5-25.5,25.5h-2.21c-14.08,0-25.5-11.42-25.5-25.5,0-.03,0-.06,0-.08h-15.17s0,.06,0,.08c0,14.08-11.42,25.5-25.5,25.5h-2.21c-14.08,0-25.5-11.42-25.5-25.5,0-.03,0-.06,0-.08h-15.17s0,.06,0,.08c0,7.3-3.06,13.88-7.98,18.52-4.65,4.91-11.23,7.98-18.52,7.98-.03,0-.06,0-.08,0v15.17s.06,0,.08,0c14.08,0,25.5,11.42,25.5,25.5v2.21c0,14.08-11.42,25.5-25.5,25.5-.03,0-.06,0-.08,0v15.17s.06,0,.08,0c14.08,0,25.5,11.42,25.5,25.5v2.21c0,14.08-11.42,25.5-25.5,25.5-.03,0-.06,0-.08,0v15.17s.06,0,.08,0c14.08,0,25.5,11.42,25.5,25.5v2.21c0,14.08-11.42,25.5-25.5,25.5-.03,0-.06,0-.08,0v15.17s.06,0,.08,0c7.3,0,13.88,3.06,18.52,7.98,4.91,4.65,7.98,11.23,7.98,18.52,0,.03,0,.06,0,.08h15.17s0-.06,0-.08c0-14.08,11.42-25.5,25.5-25.5h2.21c14.08,0,25.5,11.42,25.5,25.5,0,.03,0,.06,0,.08h15.17s0-.06,0-.08c0-14.08,11.42-25.5,25.5-25.5h2.21c14.08,0,25.5,11.42,25.5,25.5,0,.03,0,.06,0,.08h15.17s0-.06,0-.08c0-14.08,11.42-25.5,25.5-25.5h2.21c14.08,0,25.5,11.42,25.5,25.5,0,.03,0,.06,0,.08h15.17s0-.06,0-.08c0-7.3,3.06-13.88,7.98-18.52,4.65-4.91,11.23-7.98,18.52-7.98.03,0,.06,0,.08,0v-15.17s-.06,0-.08,0Z"/>
  <rect class="cls-1" x="66.94" y="68.88" width="178" height="178" rx="10.93" ry="10.93"/>
  <rect class="cls-4" x="60.63" y="63.5" width="178" height="178" rx="10.93" ry="10.93"/>
  <g class="cls-2">
    <rect class="cls-6" x="78.39" y="104.28" width="149.11" height="105.19" rx="12" ry="12"/>
    <path class="cls-6" d="M177.43,153.45l-34.65-20c-2.64-1.52-5.94.38-5.94,3.43v40.01c0,3.05,3.3,4.95,5.94,3.43l34.65-20c2.64-1.52,2.64-5.33,0-6.86Z"/>
  </g>
  <g>
    <rect class="cls-7" x="75.08" y="100.45" width="149.11" height="105.19" rx="12" ry="12"/>
    <path class="cls-5" d="M174.12,149.61l-34.65-20c-2.64-1.52-5.94.38-5.94,3.43v40.01c0,3.05,3.3,4.95,5.94,3.43l34.65-20c2.64-1.52,2.64-5.33,0-6.86Z"/>
  </g>
</svg>